<svg width="184" height="28" viewBox="0 0 184 28" fill="none" xmlns="http://www.w3.org/2000/svg">
<path d="M57.788 11.0998C56.6635 10.4476 55.4414 10.0317 54.2141 9.62605C52.8123 9.16391 51.4002 8.73772 50.0138 8.24477C47.9753 7.51561 48.2269 5.23059 49.2795 4.29091C49.7006 3.91093 50.1781 3.64391 50.707 3.47446C53.259 2.65288 56.037 3.69013 57.4337 5.98542C58.0139 6.94051 58.3477 7.99316 58.6353 9.06122C58.7226 9.38471 58.8355 9.74929 59.2515 9.69281C59.6622 9.63632 59.6879 9.27175 59.6879 8.92771C59.6777 7.12536 59.6725 5.31788 59.6674 3.51554C59.6674 3.15096 59.6263 2.78639 59.195 2.68882C58.7431 2.59126 58.5531 2.88395 58.3888 3.2588C58.0191 4.11119 57.5518 4.25496 56.7251 3.80309C56.494 3.67472 56.2732 3.51554 56.0473 3.3769C54.7071 2.55018 53.2847 1.96481 51.698 1.79535C48.9098 1.50267 46.4297 3.1715 45.6954 5.88272C45.6543 6.02136 45.7108 6.22676 45.5054 6.29865C45.5054 6.42188 45.5054 6.54512 45.5054 6.66836C45.6851 6.99699 45.7056 7.32562 45.5054 7.65426C45.5054 7.69534 45.5054 7.73641 45.5054 7.77749C45.5978 7.8083 45.6183 7.88019 45.6286 7.96235C45.9059 9.83658 47.0253 11.1049 48.5966 12.0343C49.6749 12.6762 50.8457 13.1178 52.0113 13.5645C53.4439 14.1139 54.9587 14.4426 56.34 15.1306C57.5518 15.7314 58.0448 16.8252 57.8291 18.2116C57.6494 19.3875 56.8124 20.2604 55.5338 20.4504C53.2488 20.7893 51.2308 20.132 49.5157 18.6018C47.9958 17.2462 47.2358 15.4798 46.8815 13.5132C46.8148 13.1537 46.6761 12.8559 46.2705 12.8816C45.8545 12.9072 45.7673 13.2307 45.7724 13.5953C45.7827 16.1371 45.7827 18.6789 45.7929 21.2258C45.7929 21.539 45.8135 21.8676 46.2037 21.9549C46.5888 22.0371 46.8096 21.8317 46.9739 21.503C47.8161 19.8393 48.6274 19.598 50.2859 20.5069C51.4208 21.1333 52.6069 21.6263 53.8906 21.8727C57.0075 22.4787 60.0422 20.5839 60.7303 17.6057C61.3362 14.992 60.2168 12.5067 57.788 11.0998Z" fill="#C03A30"/>
<path d="M45.5059 6.66846C45.5059 6.99709 45.5059 7.32572 45.5059 7.65435C45.6086 7.32572 45.6086 6.99709 45.5059 6.66846Z" fill="#D8999B"/>
<path d="M45.5059 6.66846C45.6086 6.99709 45.6086 7.32572 45.5059 7.65435C45.7061 7.32572 45.6856 6.99709 45.5059 6.66846Z" fill="#D8999B"/>
<path d="M83.093 20.9023C82.0455 20.5429 81.9068 20.3478 81.8914 19.2181C81.8709 17.6828 81.8657 16.1423 81.8503 14.6018C81.8401 13.6776 81.8606 12.7584 81.7322 11.8393C81.4755 10.0112 80.3509 8.74293 78.6718 8.55294C76.8695 8.34241 75.3085 8.8867 74.0761 10.2577C73.8348 10.5247 73.6243 10.8277 73.3983 11.1152C71.3187 7.71595 68.8334 7.5465 65.5676 10.6582C65.6138 10.345 65.6395 10.1448 65.6703 9.93935C65.8449 8.80968 65.5676 8.54267 64.4533 8.79941C63.5547 9.00994 62.6407 9.16399 61.7216 9.23074C61.3416 9.26155 61.0695 9.35398 61.0489 9.7699C61.0284 10.2269 61.3057 10.3347 61.7165 10.3758C62.5175 10.458 62.9437 10.8226 62.995 11.5466C63.185 14.2475 63.1748 16.9587 63.0926 19.6648C63.0721 20.3016 62.6972 20.6713 62.081 20.8099C61.9219 20.8458 61.7575 20.8664 61.5984 20.8972C61.2184 20.9742 61.1105 21.231 61.1516 21.5801C61.1927 21.9293 61.434 21.9909 61.7319 21.9653C63.4931 21.8061 65.2544 21.7804 67.0208 21.9653C67.3802 22.0012 67.637 21.8831 67.6832 21.5031C67.7243 21.1334 67.5189 20.9331 67.1594 20.8767C67.0773 20.8664 66.9951 20.8561 66.9181 20.8407C66.1941 20.6969 65.8449 20.3272 65.8141 19.5775C65.7319 17.6314 65.6857 15.6802 65.773 13.734C65.8346 12.3168 66.3789 11.1306 67.827 10.5966C69.3674 10.0318 70.5022 10.6428 70.9284 12.2192C71.0876 12.8149 71.1492 13.4259 71.1492 14.0421C71.1441 15.8085 71.1492 17.5698 71.1492 19.3362C71.1492 20.4607 71.0465 20.5994 69.922 20.8613C69.5369 20.9537 69.3572 21.1642 69.3931 21.5545C69.4291 21.9909 69.7423 22.0115 70.0658 21.9704C71.6422 21.765 73.2135 21.7599 74.7899 21.9653C75.1031 22.0063 75.442 22.032 75.4934 21.5904C75.5447 21.1745 75.3444 20.9537 74.9285 20.8664C74.0761 20.6815 73.8553 20.4094 73.8502 19.5673C73.8399 17.7803 73.8296 15.9985 73.8502 14.2116C73.8605 13.123 74.2712 12.1628 75.0158 11.3771C75.7193 10.6377 76.5871 10.2218 77.6192 10.4939C78.6154 10.7558 78.8926 11.6185 79.0878 12.5068C79.1083 12.6044 79.134 12.7071 79.1391 12.8098C79.2675 15.0229 79.2521 17.236 79.2264 19.4543C79.2161 20.3683 78.8926 20.6918 78.0043 20.8613C77.5935 20.9383 77.2803 21.0975 77.3214 21.5596C77.3676 22.0885 77.7886 21.9909 78.1224 21.9601C79.7194 21.7958 81.3163 21.7393 82.9133 21.9601C83.2419 22.0063 83.5038 21.9601 83.5654 21.5904C83.6013 21.2464 83.4421 21.0204 83.093 20.9023Z" fill="#C03A30"/>
<path d="M151.125 20.8611C150.124 20.5992 149.893 20.3117 149.883 19.2744C149.867 18.0626 149.888 16.8559 149.867 15.644C149.847 14.4168 149.944 13.1844 149.754 11.9572C149.359 9.44624 147.464 8.12144 144.963 8.59385C143.829 8.80952 142.94 9.41543 142.052 10.3603C142.052 8.24981 142.052 6.32423 142.052 4.39865C142.052 3.72085 142.047 3.04304 142.031 2.37037C142.021 1.94418 141.816 1.72338 141.359 1.80554C140.106 2.02634 138.863 2.29335 137.595 2.41145C137.148 2.45253 137.025 2.74522 137.066 3.15088C137.117 3.62328 137.477 3.64896 137.826 3.70031C138.945 3.85435 139.248 4.15218 139.295 5.27672C139.479 9.93406 139.402 14.5863 139.325 19.2436C139.305 20.4708 139.202 20.5633 138.011 20.856C137.61 20.9535 137.482 21.1897 137.523 21.5697C137.569 22.0062 137.852 22.0164 138.191 21.9754C139.788 21.7854 141.384 21.7186 142.976 21.9805C143.279 22.0318 143.515 21.96 143.582 21.6313C143.654 21.277 143.582 21.0151 143.156 20.8868C142.18 20.5941 142.073 20.4298 142.062 19.4028C142.047 17.4156 142.031 15.4232 142.037 13.436C142.037 12.5991 142.375 11.8802 142.961 11.2897C143.695 10.5502 144.594 10.2421 145.605 10.5194C146.53 10.771 146.874 11.5515 147.064 12.4091C147.1 12.5683 147.141 12.7274 147.151 12.8918C147.326 15.0638 147.197 17.2359 147.177 19.4079C147.166 20.5119 147.012 20.63 145.919 20.8662C145.462 20.9638 145.369 21.2257 145.431 21.6211C145.492 22.0267 145.77 22.0113 146.078 21.9651C147.695 21.7494 149.313 21.7289 150.925 21.9754C151.295 22.0318 151.603 22.001 151.685 21.58C151.777 21.1538 151.516 20.9638 151.125 20.8611Z" fill="#21397D"/>
<path d="M158.746 8.52197C155.783 8.29603 153.523 9.58489 152.543 12.1267C151.742 14.196 151.742 16.2962 152.563 18.3604C154.088 22.1756 158.812 23.2642 161.878 20.5068C163.444 19.0998 163.865 17.2256 163.906 15.223C163.916 14.4579 163.819 13.7082 163.649 12.9688C163.069 10.3757 161.226 8.71196 158.746 8.52197ZM160.979 15.336C160.984 16.4656 160.933 17.5902 160.594 18.6788C160.168 20.0498 159.357 20.6814 158.016 20.7173C156.681 20.7533 155.778 20.173 155.362 18.7969C154.648 16.4246 154.653 14.0163 155.475 11.6697C156.019 10.1189 157.262 9.48732 158.715 9.85704C159.639 10.0932 160.163 10.7402 160.481 11.5875C160.62 11.9521 160.728 12.3269 160.805 12.7069C160.974 13.5696 160.995 14.4528 160.979 15.336Z" fill="#21397D"/>
<path d="M176.974 13.5494C176.574 10.6995 174.653 8.75851 171.988 8.52744C168.871 8.25529 166.489 9.73927 165.59 12.5532C165.005 14.3812 165.015 16.2298 165.647 18.0475C167.038 22.0579 171.814 23.3518 175.018 20.579C176.625 19.1875 177.077 17.2978 177.108 15.2695C177.128 14.6842 177.056 14.1142 176.974 13.5494ZM173.78 18.7459C173.344 20.0655 172.538 20.6868 171.213 20.7177C169.919 20.7485 169.03 20.2042 168.609 18.8999C167.824 16.4711 167.855 14.0115 168.712 11.6084C169.174 10.3092 170.129 9.70846 171.321 9.75981C172.497 9.81116 173.318 10.4838 173.76 11.7624C174.155 12.9024 174.186 14.0937 174.191 15.2849C174.17 16.4506 174.155 17.6162 173.78 18.7459Z" fill="#21397D"/>
<path d="M95.0162 20.0246C94.2665 20.5022 93.7016 20.2403 93.5579 19.3519C93.486 18.9103 93.4654 18.4533 93.4603 18.0066C93.4449 16.0399 93.4654 14.0682 93.4295 12.1015C93.4141 11.1156 93.1625 10.1862 92.3512 9.51864C90.4718 7.97304 86.9955 8.21438 85.3472 9.99619C84.7926 10.597 84.5051 11.2953 84.5667 12.122C84.6026 12.6509 84.8029 13.0925 85.3266 13.2825C85.8658 13.4776 86.3844 13.4212 86.8106 12.995C87.2163 12.5842 87.2676 12.1323 87.0006 11.5931C86.7028 10.9975 86.8517 10.4018 87.2933 10.0373C88.5462 9.00516 90.5077 9.67783 90.8466 11.2645C91.0007 11.9731 90.9802 12.692 90.9853 13.4109C90.9904 14.2581 90.9853 14.253 90.1688 14.3198C89.7991 14.3506 89.4346 14.3916 89.0648 14.4379C87.699 14.6073 86.4101 14.9616 85.3575 15.9167C84.2483 16.9283 83.8786 18.8231 84.5102 20.2865C85.0442 21.524 86.1431 22.0632 87.8222 21.9707C89.1162 21.8988 90.1842 21.3545 91.1342 20.4405C91.5039 21.2467 92.0123 21.8116 92.8903 21.9502C94.0714 22.1299 94.8929 21.5599 95.5964 20.7076C95.771 20.497 95.8532 20.3019 95.6324 20.0606C95.427 19.8295 95.2729 19.8603 95.0162 20.0246ZM90.3178 19.6344C89.9788 19.8295 89.6348 20.0092 89.2497 20.0862C88.5103 20.2351 87.7452 20.3327 87.2266 19.6241C86.6925 18.9001 86.749 18.0836 87.0982 17.2929C87.319 16.7948 87.7195 16.4405 88.1868 16.1632C88.9416 15.7164 89.794 15.5881 90.6413 15.4289C90.9288 15.3724 90.9904 15.5008 90.9853 15.7575C90.9699 16.271 90.9802 16.7794 90.9802 17.2929H90.975C90.975 17.6626 90.9339 18.0323 90.9853 18.3969C91.0726 18.9874 90.8056 19.3519 90.3178 19.6344Z" fill="#C03A30"/>
<path d="M123.7 14.8846C122.503 14.0219 121.112 13.5649 119.792 12.959C119.155 12.6663 118.74 12.2504 118.755 11.5161C118.77 10.8126 119.222 10.2581 119.977 9.98592C121.307 9.50324 122.632 10.0578 123.186 11.3569C123.346 11.7318 123.428 12.1374 123.546 12.5277C123.638 12.846 123.772 13.1182 124.177 13.0309C124.552 12.9487 124.547 12.6869 124.537 12.3685C124.496 11.3261 124.357 10.2786 124.675 9.25163C124.752 9.00515 124.64 8.84084 124.414 8.77922C124.157 8.70733 123.854 8.64571 123.746 8.99488C123.623 9.3954 123.453 9.37487 123.125 9.17974C121.348 8.12195 119.571 8.28627 117.913 9.40567C115.777 10.8537 115.946 14.0476 118.2 15.3057C118.95 15.7216 119.756 16.0348 120.537 16.3943C121.173 16.6869 121.79 17.0053 122.303 17.4983C122.919 18.0888 122.94 18.7974 122.709 19.5471C122.498 20.2351 122.021 20.6716 121.297 20.7538C119.854 20.9181 118.704 20.4868 118.036 19.3006C117.779 18.8487 117.605 18.3712 117.492 17.8731C117.404 17.4983 117.256 17.262 116.829 17.3442C116.393 17.4315 116.434 17.7601 116.496 18.0682C116.629 18.7358 116.624 19.4136 116.67 20.0143C116.634 20.5586 116.603 21.0259 116.573 21.4983C116.557 21.7191 116.593 21.9143 116.855 21.9656C117.086 22.0118 117.348 22.0426 117.435 21.7705C117.589 21.2775 117.861 21.4316 118.195 21.5394C119.905 22.0991 121.615 22.2172 123.299 21.4521C124.614 20.8565 125.317 19.8295 125.379 18.3712C125.446 16.9077 124.907 15.7473 123.7 14.8846Z" fill="#21397D"/>
<path d="M183.347 20.8302C182.222 20.6146 181.94 20.2603 181.94 19.1203C181.94 16.3937 181.94 13.6671 181.94 10.9404C181.935 10.9404 181.93 10.9404 181.925 10.9404C181.925 8.1522 181.925 5.36396 181.925 2.57571C181.925 1.8517 181.755 1.72332 181.031 1.83629C179.855 2.01601 178.684 2.206 177.503 2.36005C177.144 2.40626 176.923 2.53977 176.918 2.91975C176.913 3.30487 177.093 3.51026 177.488 3.57702C179.003 3.83376 179.224 4.10077 179.229 5.63097C179.234 10.1394 179.239 14.653 179.239 19.1614C179.239 20.3527 178.957 20.6762 177.76 20.8354C177.344 20.8918 177.046 21.01 177.077 21.508C177.113 22.0523 177.509 21.9702 177.847 21.9394C179.629 21.7699 181.411 21.7391 183.193 21.9496C183.552 21.9907 183.927 22.0575 183.994 21.5491C184.045 21.087 183.773 20.9124 183.347 20.8302Z" fill="#21397D"/>
<path d="M136.388 19.2281C133.939 20.671 131.443 20.0189 130.226 17.626C129.78 16.748 129.605 15.8083 129.636 15.0175C129.661 13.4 129.887 12.219 130.288 11.418C131.032 9.92884 132.588 9.28698 134.047 9.87236C134.786 10.1702 134.878 10.4013 134.55 11.1253C134.309 11.6593 134.329 12.1625 134.699 12.6247C135.063 13.0765 135.567 13.169 136.09 13.0457C136.64 12.9173 136.943 12.5168 137.071 11.9725C137.338 10.8018 136.681 9.62075 135.402 9.00457C133.112 7.89543 129.836 8.60918 128.213 10.5861C126.914 12.1677 126.57 14.0265 126.714 16.0085C126.966 19.4335 129.246 21.8161 132.496 21.9856C134.144 22.0728 135.603 21.544 136.809 20.3835C136.912 20.2859 137.009 20.1781 137.107 20.0702C137.343 19.8186 137.425 19.5619 137.184 19.2487C136.912 18.8995 136.671 19.0587 136.388 19.2281Z" fill="#21397D"/>
<path d="M104.5 8.61968C103.155 8.21402 101.712 8.70183 100.896 9.83664C100.737 10.0626 100.588 10.2988 100.346 10.6582C100.372 10.2372 100.382 9.98042 100.398 9.72368C100.464 8.7994 100.274 8.62481 99.3501 8.76859C98.3796 8.9175 97.4091 9.08695 96.4335 9.21019C96.0381 9.26154 95.7557 9.36937 95.7505 9.82124C95.7454 10.3142 96.074 10.3399 96.454 10.3758C97.4091 10.4682 97.7532 10.802 97.8969 11.7417C97.9534 12.1063 97.9791 12.476 97.9791 12.8405C97.9894 14.8688 97.9894 16.9022 97.9894 18.9305C97.9894 20.2296 97.7121 20.5737 96.4078 20.8304C95.9868 20.9126 95.7095 21.0923 95.7711 21.5596C95.8327 22.0423 96.2024 21.9704 96.5259 21.9396C98.472 21.765 100.418 21.7188 102.364 21.9755C102.503 21.996 102.652 21.9755 102.796 21.9704C103.104 21.955 103.299 21.8112 103.34 21.498C103.381 21.1796 103.217 20.9947 102.919 20.9177C102.523 20.815 102.118 20.7483 101.728 20.6199C100.942 20.3683 100.701 20.0397 100.695 19.2283C100.685 17.2001 100.67 15.1667 100.69 13.1384C100.701 12.06 101.127 11.1306 102.02 10.4939C102.693 10.0112 103.212 10.2526 103.289 11.0331C103.34 11.5517 103.556 11.9317 104.095 12.06C104.721 12.209 105.312 11.9882 105.61 11.5055C106.257 10.458 105.687 8.97398 104.5 8.61968Z" fill="#C03A30"/>
<path d="M113.81 19.7315C113.692 19.8136 113.563 19.8752 113.43 19.9317C111.792 20.6763 110.898 20.1474 110.796 18.3553C110.78 18.0678 110.775 17.7802 110.775 17.4927C110.77 16.5478 110.775 15.6082 110.775 14.6633C110.775 13.431 110.796 12.2037 110.765 10.9714C110.754 10.5297 110.893 10.4065 111.319 10.4322C111.997 10.4681 112.675 10.4271 113.348 10.4527C113.938 10.4733 114.005 10.119 114.015 9.65682C114.025 9.19982 113.918 8.89686 113.373 8.91226C112.778 8.92767 112.182 8.9174 111.586 8.90713C110.641 8.89172 110.765 9.03036 110.754 8.10609C110.749 7.57206 110.739 7.03803 110.76 6.50914C110.775 6.04186 110.677 5.68242 110.113 5.68755C109.609 5.68755 109.224 5.8262 109.193 6.43211C109.178 6.69399 109.116 6.96101 109.06 7.21775C108.839 8.23446 108.29 8.9328 107.186 9.0355C106.652 9.08685 106.436 9.33846 106.487 9.88275C106.539 10.4373 106.883 10.463 107.304 10.4681C108.095 10.4681 108.095 10.4784 108.095 11.2948C108.095 13.7545 108.084 16.2141 108.105 18.6737C108.115 19.7417 108.3 20.7687 109.26 21.4516C110.647 22.4324 113.188 22.073 114.256 20.7584C114.333 20.6609 114.405 20.5633 114.472 20.4606C114.631 20.2347 114.657 20.0139 114.446 19.7931C114.262 19.5774 114.051 19.5569 113.81 19.7315Z" fill="#C03A30"/>
<path d="M0 5.37735L15.9374 0L32.0389 5.37735L15.9374 11.5509L0 5.37735Z" fill="#062A9B"/>
<path d="M5.24023 10.5889L14.3317 13.7979V27.9177L12.9419 26.7402L11.7645 27.9177V22.7961L5.24023 20.4299V10.5889Z" fill="#C00706"/>
<path d="M17.1133 14.3319V23.425L26.7404 20.3221V10.5889L17.1133 14.3319Z" fill="#C00706"/>
<path d="M16.0198 9.14605C17.3799 9.14605 18.4825 8.04347 18.4825 6.68338C18.4825 5.32328 17.3799 4.2207 16.0198 4.2207C14.6597 4.2207 13.5571 5.32328 13.5571 6.68338C13.5571 8.04347 14.6597 9.14605 16.0198 9.14605Z" fill="white"/>
</svg>
