<svg width="336" height="284" viewBox="0 0 336 284" fill="none" xmlns="http://www.w3.org/2000/svg">
<ellipse cx="173" cy="145.338" rx="147.515" ry="138.42" fill="#336CCE"/>
<path d="M234.756 171.55V190.65H326.346C327.026 190.65 327.586 190.1 327.586 189.41C327.586 188.73 327.036 188.17 326.346 188.17H237.506V174.02H326.346C327.026 174.02 327.586 173.47 327.586 172.78C327.586 172.1 327.036 171.54 326.346 171.54H234.756V171.55Z" fill="#3588CC"/>
<path d="M325.576 174.02H237.506V188.17H325.576V174.02Z" fill="white"/>
<path d="M323.026 177.07H239.986C239.816 177.07 239.676 176.93 239.676 176.76C239.676 176.59 239.816 176.45 239.986 176.45H323.026C323.196 176.45 323.336 176.59 323.336 176.76C323.346 176.93 323.206 177.07 323.026 177.07Z" fill="#B3B3B3"/>
<path d="M323.026 180H239.986C239.816 180 239.676 179.86 239.676 179.69C239.676 179.52 239.816 179.38 239.986 179.38H323.026C323.196 179.38 323.336 179.52 323.336 179.69C323.346 179.86 323.206 180 323.026 180Z" fill="#B3B3B3"/>
<path d="M323.026 182.93H239.986C239.816 182.93 239.676 182.79 239.676 182.62C239.676 182.45 239.816 182.31 239.986 182.31H323.026C323.196 182.31 323.336 182.45 323.336 182.62C323.346 182.79 323.206 182.93 323.026 182.93Z" fill="#B3B3B3"/>
<path d="M323.026 185.86H239.986C239.816 185.86 239.676 185.72 239.676 185.55C239.676 185.38 239.816 185.24 239.986 185.24H323.026C323.196 185.24 323.336 185.38 323.336 185.55C323.346 185.72 323.206 185.86 323.026 185.86Z" fill="#B3B3B3"/>
<path d="M327.056 133.36H234.756V152.46H327.056V133.36Z" fill="#FFCC22"/>
<path d="M314.066 133.36H309.696V152.46H314.066V133.36Z" fill="#E26438"/>
<path d="M319.436 152.46H227.136V171.56H319.436V152.46Z" fill="#61B579"/>
<path d="M252.896 97.2699C252.896 96.1999 252.036 95.3398 250.966 95.3398H91.596C90.526 95.3398 89.666 96.1999 89.666 97.2699V190.27H252.896V97.2699Z" fill="#3588CC"/>
<path d="M245.866 184.37H96.6961C95.6261 184.37 94.7661 183.51 94.7661 182.44V102.85C94.7661 101.78 95.6261 100.92 96.6961 100.92H245.866C246.936 100.92 247.796 101.78 247.796 102.85V182.44C247.796 183.5 246.926 184.37 245.866 184.37Z" fill="#EFECEF"/>
<path d="M239.986 108.93H150.296V169.24H239.986V108.93Z" fill="white"/>
<path d="M239.986 170.21H150.296C149.756 170.21 149.326 169.78 149.326 169.24V108.93C149.326 108.39 149.756 107.96 150.296 107.96H239.986C240.526 107.96 240.956 108.39 240.956 108.93V169.24C240.956 169.78 240.516 170.21 239.986 170.21ZM151.266 168.28H239.016V109.91H151.266V168.28Z" fill="#A97F54"/>
<path d="M182.086 133.54C181.556 134.12 181.036 134.7 180.506 135.28C180.236 134.8 179.956 134.33 179.686 133.85C179.336 133.24 178.406 133.83 178.756 134.44C179.076 135 179.406 135.57 179.726 136.13L177.986 138.05C177.506 138.57 178.316 139.32 178.796 138.8C179.296 138.24 179.806 137.69 180.306 137.13C180.726 137.87 181.156 138.6 181.576 139.34C181.926 139.95 182.856 139.36 182.506 138.75C182.036 137.93 181.556 137.1 181.086 136.28C181.686 135.62 182.296 134.95 182.896 134.29C183.366 133.76 182.556 133.01 182.086 133.54Z" fill="#3588CC"/>
<path d="M187.386 134.87L185.686 134.93C185.396 134.94 185.136 135.2 185.156 135.5C185.176 135.8 185.416 136.04 185.726 136.03L187.426 135.97C187.716 135.96 187.976 135.7 187.956 135.4C187.926 135.11 187.686 134.86 187.386 134.87Z" fill="#3588CC"/>
<path d="M219.426 135.67L217.726 135.73C217.436 135.74 217.176 136 217.196 136.3C217.216 136.6 217.456 136.84 217.766 136.83L219.466 136.77C219.756 136.76 220.016 136.5 219.996 136.2C219.966 135.9 219.726 135.66 219.426 135.67Z" fill="#3588CC"/>
<path d="M187.326 136.71C186.866 136.73 186.406 136.71 185.946 136.67C185.846 136.66 185.756 136.65 185.656 136.64C185.506 136.62 185.366 136.63 185.236 136.71C185.126 136.78 185.026 136.92 184.996 137.05C184.946 137.32 185.096 137.67 185.406 137.71C186.056 137.79 186.716 137.83 187.376 137.81C187.666 137.8 187.926 137.54 187.906 137.24C187.876 136.94 187.636 136.7 187.326 136.71Z" fill="#3588CC"/>
<path d="M202.066 130.9C199.766 130.95 197.466 130.99 195.176 131.04C194.636 131.05 194.076 131.02 193.546 131.08C193.006 131.15 192.696 131.5 192.596 132.02C192.426 132.96 192.336 133.91 192.146 134.85C192.006 135.57 191.816 136.27 191.526 136.94C191.466 136.78 191.406 136.63 191.356 136.46C191.146 135.78 190.096 136.11 190.306 136.79C190.486 137.36 190.736 137.91 191.056 138.42C191.286 138.79 191.786 138.72 192.006 138.38C192.646 137.39 192.996 136.25 193.226 135.09C193.336 134.53 193.416 133.96 193.506 133.39C193.546 133.13 193.586 132.86 193.626 132.6C193.646 132.47 193.706 132.3 193.696 132.17C193.696 132.16 193.696 132.16 193.706 132.15C193.736 132.15 193.776 132.14 193.806 132.14C196.576 132.03 199.356 132.03 202.136 131.97C202.816 131.98 202.776 130.89 202.066 130.9Z" fill="#3588CC"/>
<path d="M196.176 139.05C196.796 139.08 197.456 139.08 198.006 138.74C198.496 138.44 198.856 137.86 198.806 137.28C198.696 136.17 197.536 135.92 196.606 135.99C196.576 135.32 196.556 134.65 196.526 133.99C196.496 133.28 195.396 133.32 195.426 134.03L195.606 138.52C195.626 138.84 195.886 139.03 196.176 139.05ZM196.956 137.07C196.996 137.07 197.036 137.07 197.076 137.07C197.086 137.07 197.146 137.07 197.156 137.07C197.176 137.07 197.286 137.09 197.326 137.1C197.366 137.11 197.396 137.12 197.436 137.13C197.456 137.13 197.496 137.15 197.506 137.15C197.546 137.17 197.606 137.2 197.606 137.2C197.636 137.22 197.676 137.26 197.686 137.27C197.696 137.28 197.696 137.28 197.696 137.29C197.706 137.31 197.716 137.34 197.716 137.35C197.706 137.35 197.716 137.41 197.716 137.4C197.716 137.42 197.706 137.46 197.696 137.47C197.686 137.49 197.666 137.56 197.636 137.59C197.576 137.69 197.476 137.77 197.356 137.83C197.146 137.93 196.916 137.96 196.676 137.96C196.666 137.66 196.656 137.37 196.636 137.07C196.756 137.08 196.856 137.07 196.956 137.07Z" fill="#3588CC"/>
<path d="M200.066 140.03C198.066 140.13 196.056 140.23 194.056 140.33C193.346 140.37 193.386 141.46 194.096 141.43C196.096 141.33 198.106 141.23 200.106 141.13C200.816 141.09 200.776 139.99 200.066 140.03Z" fill="#3588CC"/>
<path d="M197.336 143.66L197.346 143.67C197.346 143.67 197.346 143.66 197.336 143.66Z" fill="#3588CC"/>
<path d="M197.126 143.61C197.136 143.62 197.166 143.62 197.176 143.62C197.166 143.62 197.146 143.62 197.136 143.61C197.136 143.61 197.136 143.61 197.126 143.61Z" fill="#3588CC"/>
<path d="M196.656 143.78C196.686 143.77 196.696 143.76 196.696 143.75C196.686 143.76 196.676 143.77 196.656 143.78C196.666 143.78 196.666 143.78 196.656 143.78Z" fill="#3588CC"/>
<path d="M197.616 145.08C197.436 145.22 197.256 145.36 197.056 145.47C197.036 145.48 197.006 145.5 196.986 145.51C196.936 145.53 196.886 145.55 196.836 145.57C196.826 145.57 196.756 145.59 196.726 145.6C196.706 145.6 196.676 145.6 196.656 145.61C196.636 145.61 196.586 145.61 196.566 145.61C196.536 145.6 196.496 145.6 196.486 145.59C196.476 145.59 196.476 145.59 196.466 145.59C196.446 145.58 196.416 145.56 196.396 145.55C196.386 145.54 196.366 145.52 196.366 145.51C196.356 145.49 196.336 145.46 196.316 145.44C196.316 145.43 196.306 145.41 196.306 145.4C196.306 145.39 196.276 145.28 196.266 145.25C196.266 145.23 196.266 145.21 196.256 145.2C196.256 145.15 196.246 145.1 196.246 145.05C196.246 145.02 196.246 144.76 196.256 144.76C196.256 144.76 196.236 144.9 196.256 144.78C196.256 144.76 196.266 144.74 196.266 144.72C196.276 144.67 196.286 144.62 196.286 144.57C196.306 144.47 196.326 144.38 196.356 144.28C196.356 144.27 196.366 144.26 196.366 144.25C196.366 144.25 196.366 144.25 196.376 144.24C196.396 144.2 196.416 144.15 196.436 144.11C196.456 144.07 196.476 144.04 196.496 144C196.506 143.99 196.516 143.97 196.526 143.95C196.526 143.95 196.526 143.95 196.536 143.94C196.566 143.9 196.596 143.87 196.636 143.83C196.646 143.82 196.656 143.81 196.676 143.79C196.676 143.79 196.666 143.79 196.666 143.8C196.676 143.8 196.676 143.79 196.686 143.79C196.706 143.77 196.716 143.77 196.716 143.77C196.726 143.76 196.746 143.75 196.756 143.74C196.776 143.73 196.796 143.72 196.816 143.7C196.846 143.68 196.846 143.68 196.836 143.68C196.886 143.65 196.976 143.64 197.036 143.63C197.066 143.63 197.086 143.62 197.116 143.62C197.126 143.62 197.146 143.62 197.156 143.62C197.156 143.62 197.146 143.62 197.146 143.61C197.146 143.61 197.156 143.61 197.166 143.62C197.216 143.62 197.216 143.62 197.206 143.63C197.246 143.64 197.286 143.64 197.286 143.64C197.296 143.64 197.306 143.64 197.316 143.65C197.336 143.66 197.346 143.67 197.366 143.67C197.356 143.66 197.366 143.66 197.386 143.68C197.386 143.68 197.386 143.68 197.376 143.68C197.376 143.68 197.386 143.68 197.386 143.69C197.406 143.71 197.436 143.74 197.456 143.76C197.656 143.97 198.046 143.95 198.236 143.73C198.436 143.49 198.416 143.18 198.206 142.95C197.806 142.53 197.176 142.44 196.636 142.59C196.096 142.74 195.666 143.17 195.446 143.67C195.006 144.66 194.966 146.42 196.336 146.67C197.066 146.8 197.686 146.44 198.236 146.01C198.466 145.84 198.586 145.51 198.406 145.25C198.216 145.02 197.866 144.89 197.616 145.08Z" fill="#3588CC"/>
<path d="M208.106 135.55L207.486 135.57C207.456 135.21 207.436 134.84 207.406 134.48C207.386 134.19 207.136 133.93 206.836 133.95C206.546 133.97 206.286 134.21 206.306 134.52C206.336 134.88 206.356 135.25 206.386 135.61L205.556 135.64C205.266 135.65 205.006 135.91 205.026 136.21C205.046 136.51 205.286 136.75 205.596 136.74L206.456 136.71L206.546 137.98C206.566 138.27 206.816 138.53 207.116 138.51C207.406 138.49 207.666 138.25 207.646 137.94L207.556 136.67L208.146 136.65C208.436 136.64 208.696 136.38 208.676 136.08C208.656 135.78 208.416 135.54 208.106 135.55Z" fill="#3588CC"/>
<path d="M213.286 133.97C212.706 134.1 212.226 134.53 211.946 135.04C211.386 136.07 211.646 137.54 212.726 138.13C213.316 138.45 214.116 138.45 214.666 138.04C214.896 137.87 215.016 137.54 214.836 137.28C214.676 137.05 214.326 136.93 214.076 137.11C214.046 137.14 214.006 137.16 213.966 137.18C213.956 137.19 213.936 137.2 213.926 137.2C213.886 137.21 213.846 137.23 213.806 137.24C213.806 137.24 213.796 137.24 213.786 137.25C213.776 137.25 213.756 137.25 213.746 137.25C213.706 137.25 213.656 137.26 213.616 137.25C213.616 137.25 213.596 137.25 213.586 137.25C213.576 137.25 213.576 137.25 213.576 137.25C213.536 137.24 213.486 137.23 213.446 137.22C213.426 137.21 213.406 137.21 213.386 137.2C213.376 137.2 213.356 137.19 213.346 137.18C213.316 137.17 213.276 137.14 213.266 137.14C213.236 137.13 213.216 137.11 213.186 137.09C213.186 137.08 213.136 137.05 213.116 137.03C213.086 137 213.056 136.97 213.036 136.95C213.026 136.94 213.006 136.91 212.996 136.89C212.966 136.85 212.936 136.8 212.916 136.76C212.906 136.75 212.906 136.74 212.896 136.72C212.876 136.67 212.856 136.61 212.836 136.56C212.826 136.52 212.816 136.47 212.806 136.43C212.806 136.42 212.796 136.4 212.796 136.39V136.38C212.786 136.28 212.776 136.19 212.786 136.09C212.786 136.08 212.786 136.06 212.786 136.04V136.03C212.796 135.99 212.796 135.94 212.806 135.9C212.816 135.86 212.826 135.81 212.836 135.77C212.846 135.74 212.856 135.72 212.856 135.69C212.896 135.6 212.936 135.52 212.986 135.43C212.996 135.42 213.006 135.41 213.006 135.39C213.046 135.35 213.076 135.3 213.116 135.26C213.146 135.23 213.176 135.2 213.206 135.18C213.216 135.17 213.226 135.16 213.246 135.15C213.286 135.12 213.336 135.09 213.376 135.07C213.386 135.06 213.406 135.05 213.416 135.05C213.476 135.03 213.526 135.01 213.576 135C213.576 135 213.596 134.99 213.616 134.99C213.676 134.98 213.726 134.98 213.786 134.98C213.806 134.98 213.826 134.98 213.846 134.98C213.856 134.98 213.876 134.98 213.896 134.98C213.926 134.99 213.966 134.99 214.006 135C214.036 135.01 214.096 135.03 214.096 135.03C214.136 135.05 214.176 135.06 214.206 135.09C214.226 135.1 214.236 135.11 214.246 135.12C214.256 135.12 214.256 135.13 214.266 135.13C214.486 135.31 214.846 135.34 215.046 135.1C215.226 134.89 215.256 134.52 215.016 134.32C214.536 133.95 213.906 133.83 213.286 133.97Z" fill="#3588CC"/>
<path d="M222.616 137.31C222.866 137.69 223.326 137.66 223.716 137.6C224.106 137.54 224.486 137.45 224.816 137.23C225.456 136.81 225.756 136.03 225.416 135.32C225.076 134.59 224.316 134.3 223.566 134.25C223.586 133.7 223.616 133.15 223.666 132.6C223.686 132.3 223.366 132.06 223.096 132.07C222.766 132.08 222.596 132.34 222.566 132.64C222.496 133.43 222.456 134.21 222.446 135C222.436 135.39 222.436 135.79 222.446 136.18C222.446 136.55 222.396 136.99 222.616 137.31ZM223.546 135.34C223.756 135.35 223.976 135.39 224.156 135.49C224.236 135.53 224.306 135.6 224.366 135.66C224.436 135.74 224.466 135.84 224.476 135.91C224.486 136.07 224.376 136.2 224.206 136.31C224.086 136.39 223.946 136.43 223.806 136.46C223.736 136.48 223.636 136.48 223.546 136.49C223.546 136.31 223.536 136.14 223.536 135.96C223.536 135.76 223.536 135.55 223.546 135.34Z" fill="#3588CC"/>
<path d="M225.096 139.55L222.086 139.66C221.796 139.67 221.536 139.93 221.556 140.23C221.576 140.53 221.816 140.77 222.126 140.76L225.136 140.65C225.426 140.64 225.686 140.38 225.666 140.08C225.646 139.78 225.406 139.54 225.096 139.55Z" fill="#3588CC"/>
<path d="M224.496 145.31C224.246 145.33 223.996 145.33 223.756 145.32L224.176 144.84C224.466 144.51 224.786 144.16 224.886 143.72C224.986 143.25 224.786 142.77 224.346 142.56C223.986 142.39 223.536 142.38 223.166 142.51C222.706 142.66 222.316 143.03 222.316 143.54C222.316 143.77 222.536 143.95 222.756 143.95C222.996 143.94 223.166 143.74 223.166 143.51C223.166 143.51 223.166 143.51 223.166 143.5V143.49V143.48C223.166 143.47 223.166 143.48 223.176 143.47C223.186 143.46 223.216 143.43 223.226 143.42C223.236 143.41 223.256 143.4 223.266 143.39C223.276 143.38 223.346 143.35 223.346 143.35C223.376 143.34 223.406 143.33 223.436 143.32C223.466 143.31 223.496 143.3 223.526 143.3C223.536 143.3 223.576 143.29 223.596 143.29C223.636 143.29 223.676 143.28 223.716 143.28C223.726 143.28 223.786 143.28 223.796 143.28C223.826 143.28 223.856 143.29 223.886 143.3C223.896 143.3 223.946 143.32 223.956 143.32C223.976 143.33 223.996 143.34 224.006 143.35C224.016 143.36 224.026 143.37 224.036 143.38C224.036 143.39 224.056 143.41 224.056 143.41C224.066 143.43 224.066 143.44 224.076 143.46V143.47C224.076 143.48 224.076 143.5 224.076 143.51V143.52C224.076 143.54 224.046 143.63 224.056 143.62C224.036 143.67 223.966 143.79 223.926 143.86C223.846 143.98 223.696 144.15 223.576 144.28C223.256 144.64 222.946 145 222.626 145.36C222.426 145.59 222.516 145.99 222.836 146.06C223.396 146.17 223.976 146.22 224.546 146.17C224.776 146.15 224.966 145.97 224.956 145.73C224.926 145.5 224.716 145.3 224.496 145.31Z" fill="#3588CC"/>
<path d="M200.676 134.99C200.486 135 200.296 135.01 200.106 134.99L200.426 134.62C200.646 134.37 200.896 134.1 200.966 133.76C201.046 133.4 200.886 133.03 200.546 132.87C200.266 132.74 199.926 132.73 199.636 132.83C199.276 132.95 198.986 133.23 198.986 133.62C198.986 133.8 199.156 133.94 199.326 133.93C199.506 133.92 199.636 133.77 199.636 133.59C199.636 133.59 199.636 133.59 199.636 133.58V133.57C199.636 133.57 199.636 133.57 199.636 133.56C199.636 133.56 199.636 133.56 199.636 133.55C199.646 133.54 199.666 133.52 199.676 133.51C199.686 133.5 199.696 133.49 199.706 133.49C199.716 133.49 199.766 133.46 199.766 133.46C199.786 133.45 199.816 133.44 199.836 133.43C199.856 133.42 199.876 133.42 199.906 133.41C199.916 133.41 199.946 133.4 199.956 133.4C199.986 133.4 200.016 133.4 200.046 133.4C200.046 133.4 200.096 133.4 200.106 133.4C200.126 133.4 200.156 133.41 200.176 133.41C200.186 133.41 200.226 133.43 200.226 133.43C200.236 133.44 200.256 133.44 200.266 133.45C200.266 133.45 200.276 133.46 200.286 133.47C200.286 133.48 200.296 133.49 200.306 133.49C200.306 133.5 200.316 133.51 200.316 133.53C200.316 133.53 200.316 133.53 200.316 133.54C200.316 133.55 200.316 133.56 200.316 133.57V133.58C200.316 133.6 200.296 133.66 200.296 133.66C200.286 133.7 200.226 133.79 200.196 133.85C200.136 133.95 200.016 134.07 199.926 134.18C199.686 134.46 199.436 134.73 199.196 135.01C199.036 135.19 199.116 135.5 199.356 135.55C199.786 135.64 200.236 135.67 200.676 135.64C200.856 135.63 200.996 135.48 200.986 135.3C201.006 135.13 200.856 134.98 200.676 134.99Z" fill="#3588CC"/>
<path d="M148.296 120.85C148.296 120.85 152.136 123.4 155.246 131.57C158.276 139.51 164.356 147.42 166.626 151.67C167.336 153 170.786 154.63 170.076 155.96L167.996 161.02C167.206 162.49 165.676 163.41 164.006 163.4H162.226C160.626 163.4 159.156 162.55 158.346 161.18L144.846 138.1L145.526 119.67L148.296 120.85Z" fill="#FFBEAC"/>
<path d="M175.476 127.36C175.476 127.36 174.796 124.77 176.016 123.28C177.236 121.78 179.286 119.74 179.286 119.74L183.406 116.51C183.406 116.51 184.226 116.12 184.426 117.34C184.626 118.55 181.876 121.21 181.876 121.21C181.876 121.21 187.846 117.49 188.406 117.13C188.966 116.77 191.106 115.51 192.076 115.23C193.046 114.94 193.656 116.01 192.996 116.68C192.996 116.68 195.036 115.76 195.496 116.63C195.956 117.5 195.646 118.09 195.296 118.54L188.966 123.6L195.726 119.29C195.726 119.29 196.466 118.83 197.026 119.75C197.586 120.67 194.066 123.32 194.066 123.32C194.066 123.32 195.236 122.71 195.856 123.6C196.466 124.49 189.886 129.54 189.886 129.54C189.886 129.54 185.246 132.7 182.696 132.96C182.696 132.96 181.366 133.22 181.016 133.86C180.656 134.5 168.086 160.08 168.086 160.08L161.626 146.91L175.476 127.36Z" fill="#FFBEAC"/>
<path d="M145.816 119.7L139.376 117.12H128.656H116.946L101.006 123.89L112.726 171.34L108.306 184.37H128.656H149.006L146.816 171.34L147.696 152.03L150.626 145.78C151.736 143.42 151.866 140.72 150.996 138.26L148.626 131.55L145.816 119.7Z" fill="#FF9C2A"/>
<path d="M101.006 123.89C101.006 123.89 96.5061 126.19 98.9961 137.67C101.486 149.14 100.066 161.23 100.066 161.23L105.696 167.96V135.94L101.006 123.89Z" fill="#FFBEAC"/>
<path d="M137.796 160.93H111.396C110.926 160.93 110.486 160.72 110.196 160.36L87.9262 132.92C87.5062 132.4 87.8362 131.63 88.4962 131.57L114.536 129.22C115.466 129.14 116.376 129.54 116.936 130.29L138.576 159.38C139.046 160.02 138.596 160.93 137.796 160.93Z" fill="#345454"/>
<path d="M91.186 133.82C91.186 134.19 91.486 134.5 91.866 134.5C92.236 134.5 92.546 134.2 92.546 133.82C92.546 133.45 92.246 133.14 91.866 133.14C91.486 133.15 91.186 133.45 91.186 133.82Z" fill="white"/>
<path d="M145.696 99.6602C145.696 99.6602 143.866 107.76 145.886 110.21C148.566 113.46 136.016 112.03 136.016 112.03L143.586 99.9402L145.696 99.6602Z" fill="#345454"/>
<path d="M101.466 154.97C101.356 155.35 101.426 155.77 101.666 156.08L110.526 170.43L110.196 160.36L102.316 150.65C102.266 151.65 102.036 153.04 101.466 154.97Z" fill="#FFBEAC"/>
<path d="M87.8364 141.16C88.0964 140.77 90.0564 138.35 90.6164 137.66C90.7164 137.54 90.8364 137.44 90.9664 137.36L96.5364 134.26C97.0264 133.99 97.6364 134.08 98.0164 134.48C98.5364 135.03 98.4464 135.91 97.8264 136.34L94.0164 138.96C93.8964 139.05 93.7864 139.15 93.6964 139.28L91.9464 141.83L102.156 137.03C102.716 136.77 103.386 136.96 103.716 137.49L103.746 137.54C104.116 138.12 103.926 138.89 103.336 139.25L94.7264 144.39L105.806 139.54C106.386 139.29 107.056 139.51 107.366 140.06L107.386 140.09C107.706 140.65 107.536 141.36 106.996 141.72L103.886 143.79L107.756 142.37C108.126 142.23 108.546 142.36 108.776 142.69C109.056 143.09 108.956 143.64 108.556 143.92L102.746 147.93C102.336 148.21 102.146 148.7 102.236 149.19C102.386 150.06 102.396 151.8 101.446 154.97C101.336 155.35 101.406 155.77 101.646 156.08L108.636 165.14C109.276 165.96 110.006 168.2 110.506 170.43C111.236 173.71 109.546 175.97 106.576 177.55C105.136 178.32 102.156 177.21 102.156 177.21C99.8464 176.62 97.6364 171.59 96.9164 169.33C96.9164 169.33 95.0664 159.34 94.7364 155.17C94.7764 154.85 94.6864 154.53 94.4864 154.27L88.9464 147.07C88.8364 146.93 88.7664 146.78 88.7264 146.61C88.4964 145.55 87.5764 141.55 87.8364 141.16Z" fill="#FFBEAC"/>
<path d="M147.056 91.6001C147.056 91.5901 147.056 91.5901 147.056 91.5801C147.066 91.5201 147.076 91.3601 147.086 91.1001C147.216 89.0501 147.176 87.7101 147.176 87.7101C147.176 85.7601 146.796 83.9001 146.106 82.1801C144.546 76.7601 140.676 71.0601 131.246 71.3201C113.426 71.8101 113.626 85.0101 113.626 85.0101H113.636C113.456 85.8901 113.356 86.7901 113.356 87.7201C113.356 87.7201 113.346 89.2401 113.576 91.5401C113.416 91.5301 113.256 91.5301 113.096 91.5601C111.466 91.8401 110.496 94.1501 110.946 96.7201C111.386 99.2901 113.076 101.14 114.706 100.86C114.956 100.82 115.196 100.72 115.416 100.58C116.406 103.62 119.266 108.89 121.446 111.27C121.026 115.07 116.956 117.13 116.956 117.13L134.546 135.95L139.386 117.13C139.386 117.13 136.966 114.72 136.026 112.04C140.666 111.4 143.976 105.43 145.386 100.87C146.986 101.06 148.606 99.2401 149.046 96.7301C149.466 94.2401 148.586 92.0201 147.056 91.6001Z" fill="#FFBEAC"/>
<path d="M137.416 92.9401C137.416 93.9001 138.026 94.6701 138.766 94.6701C139.516 94.6701 140.116 93.9001 140.116 92.9401C140.116 91.9801 139.506 91.2101 138.766 91.2101C138.016 91.2001 137.416 91.9801 137.416 92.9401Z" fill="#345454"/>
<path d="M124.066 92.9401C124.066 93.9001 124.676 94.6701 125.416 94.6701C126.166 94.6701 126.766 93.9001 126.766 92.9401C126.766 91.9801 126.156 91.2101 125.416 91.2101C124.666 91.2001 124.066 91.9801 124.066 92.9401Z" fill="#345454"/>
<path d="M131.706 99.0199C131.726 99.0199 131.736 99.0199 131.756 99.0199C132.756 98.9099 133.376 98.5599 133.616 97.9799C133.966 97.1099 133.246 96.1799 133.156 96.0799C132.996 95.8899 132.716 95.8599 132.526 96.0199C132.336 96.1799 132.306 96.4599 132.456 96.6599C132.616 96.8499 132.896 97.3499 132.776 97.6499C132.676 97.8899 132.276 98.0599 131.656 98.1299C131.406 98.1599 131.226 98.3799 131.256 98.6299C131.286 98.8499 131.476 99.0199 131.706 99.0199Z" fill="#345454"/>
<path d="M124.986 102.62C124.986 102.62 126.996 107.29 132.656 106.83C136.386 106.53 137.816 102.62 137.816 102.62H124.986Z" fill="white"/>
<path d="M139.146 72.24C139.146 72.24 129.516 66.11 117.946 73.77C116.676 74.61 115.646 75.63 114.806 76.74C114.806 76.74 113.266 78.08 110.826 83.4C109.106 87.15 106.366 94.67 106.366 106.86C106.366 108.88 107.896 110.6 109.906 111.33C112.086 112.13 117.956 112.59 120.786 112.53C121.436 112.52 121.876 111.85 121.616 111.25C120.056 107.53 119.436 103.19 119.186 99.98C118.786 94.66 119.836 91.32 124.546 88.79C124.576 88.77 135.326 84.13 137.406 76.08L147.056 91.62C147.056 91.62 148.786 92.26 148.966 93.99C148.966 93.98 151.036 74.15 139.146 72.24Z" fill="#345454"/>
<path d="M140.506 89.0402C140.436 89.0302 140.376 88.9902 140.336 88.9302C140.326 88.9102 139.976 88.4402 139.156 88.3002C138.336 88.1602 137.856 88.4902 137.836 88.5002C137.716 88.5802 137.556 88.5602 137.466 88.4402C137.386 88.3202 137.406 88.1602 137.526 88.0702C137.556 88.0502 138.196 87.5902 139.246 87.7702C140.306 87.9502 140.756 88.5902 140.776 88.6202C140.856 88.7402 140.826 88.9002 140.706 88.9902C140.646 89.0402 140.576 89.0602 140.506 89.0402Z" fill="#345454"/>
<path d="M127.286 88.75C127.216 88.75 127.146 88.73 127.096 88.68C127.076 88.66 126.646 88.28 125.806 88.31C124.966 88.34 124.566 88.77 124.556 88.78C124.456 88.89 124.296 88.89 124.186 88.8C124.076 88.7 124.076 88.54 124.166 88.43C124.186 88.4 124.716 87.82 125.786 87.78C126.856 87.74 127.436 88.27 127.456 88.3C127.566 88.4 127.566 88.57 127.466 88.67C127.416 88.72 127.356 88.75 127.286 88.75Z" fill="#345454"/>
<path d="M252.896 190.27L171.276 189.7L89.6662 190.27L62.8862 234.56H171.276H279.666L252.896 190.27Z" fill="#3588CC"/>
<path d="M272.486 243.02H70.0762C66.1062 243.02 62.8862 239.8 62.8862 235.83V234.56H279.666V235.83C279.666 239.8 276.456 243.02 272.486 243.02Z" fill="#345454"/>
<path d="M194.616 218.57C194.326 218.1 193.816 217.81 193.266 217.8L171.276 217.65L149.286 217.8C148.736 217.8 148.226 218.09 147.936 218.57L141.706 228.88C141.346 229.47 141.776 230.23 142.466 230.23H171.266H200.066C200.756 230.23 201.186 229.47 200.826 228.88L194.616 218.57Z" fill="#00C0EA"/>
<path d="M248.546 195.21C247.886 194.11 246.696 193.44 245.416 193.43L171.286 192.91L97.1562 193.43C95.8762 193.44 94.6862 194.11 94.0262 195.21L84.9662 210.2C84.1362 211.57 85.1262 213.32 86.7262 213.32H255.856C257.456 213.32 258.446 211.57 257.616 210.2L248.546 195.21Z" fill="#00C0EA"/>
<g opacity="0.3">
<g opacity="0.3">
<g opacity="0.3">
<g opacity="0.3">
<g opacity="0.3">
<path opacity="0.3" d="M246.386 196.83H96.1762C96.0062 196.83 95.8662 196.69 95.8662 196.52C95.8662 196.35 96.0062 196.21 96.1762 196.21H246.386C246.556 196.21 246.696 196.35 246.696 196.52C246.696 196.69 246.556 196.83 246.386 196.83Z" fill="#FEF6E5"/>
</g>
</g>
</g>
</g>
</g>
<g opacity="0.3">
<g opacity="0.3">
<g opacity="0.3">
<g opacity="0.3">
<g opacity="0.3">
<path opacity="0.3" d="M249.456 202.12H93.1064C92.9364 202.12 92.7964 201.98 92.7964 201.81C92.7964 201.64 92.9364 201.5 93.1064 201.5H249.466C249.636 201.5 249.776 201.64 249.776 201.81C249.766 201.98 249.626 202.12 249.456 202.12Z" fill="#FEF6E5"/>
</g>
</g>
</g>
</g>
</g>
<g opacity="0.3">
<g opacity="0.3">
<g opacity="0.3">
<g opacity="0.3">
<g opacity="0.3">
<path opacity="0.3" d="M252.526 207.4H90.0263C89.8563 207.4 89.7163 207.26 89.7163 207.09C89.7163 206.92 89.8563 206.78 90.0263 206.78H252.526C252.696 206.78 252.836 206.92 252.836 207.09C252.846 207.26 252.706 207.4 252.526 207.4Z" fill="#FEF6E5"/>
</g>
</g>
</g>
</g>
</g>
<path d="M31.3662 223.39L19.5563 247.23L15.1562 245.1L22.3262 220.84L31.3662 223.39Z" fill="#FFBEAC"/>
<path d="M35.7661 223.28L45.0761 248.71L50.5061 247.26L43.7361 220.41L35.7661 223.28Z" fill="#FFBEAC"/>
<path d="M1.74611 230.91L2.76612 231.93C4.43612 233.6 7.15611 233.6 8.82611 231.93L72.8261 167.93L65.7361 160.84L1.73612 224.84C0.0661188 226.52 0.0661134 229.24 1.74611 230.91Z" fill="#D35440"/>
<path d="M72.826 167.93L80.406 153.91C80.626 153.49 80.176 153.04 79.766 153.27L65.746 160.85C65.746 160.85 65.296 162.46 68.266 165.42C71.226 168.38 72.826 167.93 72.826 167.93Z" fill="#FFBEAC"/>
<path d="M72.9463 156.95L79.7663 153.26C80.1863 153.04 80.6363 153.49 80.4063 153.9L76.7963 160.58C76.1763 160.44 75.3063 160.08 74.4463 159.22C73.5763 158.37 73.1463 157.53 72.9463 156.95Z" fill="#345454"/>
<path d="M48.8961 174.52L41.5161 179.17L43.9661 182.49L50.6161 177.14L48.8961 174.52Z" fill="#FFBEAC"/>
<path d="M46.9159 195.75C46.9159 195.75 45.2659 195.44 44.7259 194.75C44.1959 194.05 44.6459 193.67 44.6459 193.67C44.6459 193.67 43.1859 192.33 43.3259 191.38C43.4659 190.43 43.1159 190.4 43.6859 190.18C44.1459 190 43.8259 189.62 44.8359 189.19C45.8559 188.76 45.6059 188.5 45.6059 188.5C45.6059 188.5 45.9759 187.97 46.5359 187.81C47.0959 187.65 47.5459 187.91 47.5459 187.91C47.5459 187.91 47.1959 187.32 47.8459 187.18C48.4959 187.03 50.9259 189.78 50.9259 190.4C50.9159 192.87 46.9159 195.75 46.9159 195.75Z" fill="#FFBEAC"/>
<path d="M37.206 155.48C37.206 155.48 39.546 157.02 40.226 159.67C40.916 162.32 40.886 162.98 41.156 163.34C41.426 163.7 41.806 164.1 42.156 164.29C42.506 164.48 43.306 165.11 42.906 165.56C42.506 166.01 41.216 166.66 41.216 166.66C41.216 166.66 43.306 171.88 36.686 173.46L36.676 174.8C36.676 174.8 33.166 175.34 32.226 175.6C31.286 175.86 30.186 176.34 30.186 176.34L29.566 174.15C29.566 174.15 23.766 172.87 22.476 166.45C21.056 159.37 28.056 149.92 37.206 155.48Z" fill="#FFBEAC"/>
<path d="M36.9662 155.97C36.9662 155.97 37.9762 162.24 33.2962 165.63C33.2962 165.63 33.7962 170.58 30.9562 173.56C29.7662 174.81 29.0262 174.17 28.2662 174.02C26.4762 173.65 23.3562 172.28 22.0862 167.22C20.2762 159.94 23.5662 156.43 27.1762 154.54C30.7862 152.65 35.2462 152.85 37.3562 154.58C37.3562 154.58 41.4462 156.72 40.3662 160.18L36.9662 155.97Z" fill="#345454"/>
<path d="M35.2164 166.33C35.6464 167.49 35.2864 168.7 34.3964 169.03C33.5064 169.36 32.4364 168.69 32.0064 167.54C31.5764 166.38 31.9364 165.17 32.8264 164.84C33.7064 164.5 34.7764 165.17 35.2164 166.33Z" fill="#FFBEAC"/>
<path d="M38.406 163.48C38.476 163.94 38.816 164.27 39.156 164.22C39.496 164.17 39.706 163.75 39.636 163.29C39.566 162.83 39.226 162.5 38.886 162.55C38.546 162.6 38.336 163.02 38.406 163.48Z" fill="#345454"/>
<path d="M38.9163 160.34C38.8763 160.36 38.8363 160.36 38.7963 160.35C38.7863 160.35 38.4563 160.25 38.0163 160.48C37.5763 160.71 37.4763 161.04 37.4663 161.05C37.4363 161.13 37.3563 161.18 37.2763 161.15C37.1963 161.13 37.1463 161.04 37.1763 160.96C37.1863 160.94 37.3163 160.5 37.8763 160.2C38.4363 159.91 38.8763 160.04 38.8963 160.05C38.9763 160.08 39.0263 160.16 38.9963 160.25C38.9863 160.29 38.9563 160.32 38.9163 160.34Z" fill="#345454"/>
<path d="M39.7863 169.26C39.2263 169.26 38.5763 169.07 37.9163 168.46C37.8363 168.39 37.8363 168.27 37.9063 168.19C37.9763 168.11 38.0963 168.11 38.1763 168.18C39.7763 169.63 41.1963 168.4 41.2563 168.35C41.3363 168.28 41.4563 168.29 41.5263 168.37C41.5963 168.45 41.5863 168.57 41.5163 168.64C41.4963 168.64 40.7763 169.26 39.7863 169.26Z" fill="#C7836C"/>
<path d="M39.7064 202.94C39.7064 202.94 42.4164 212.72 44.9064 221.52C44.9964 221.84 44.8064 222.18 44.4864 222.27L35.8964 224.71C35.6064 224.79 35.2964 224.65 35.1664 224.37C30.9364 214.78 26.5264 204.61 26.5264 204.61L39.7064 202.94Z" fill="#BF743C"/>
<path d="M24.0264 204.25L40.5064 203.64C40.5064 203.64 35.6764 214.85 31.3464 224.88C31.2264 225.17 30.9064 225.31 30.6064 225.22L21.8564 222.49C21.5364 222.39 21.3564 222.05 21.4564 221.73L24.0264 204.25Z" fill="#BF743C"/>
<path d="M42.5561 178.5L46.0761 184.25C46.0761 184.25 32.1761 199.75 27.1361 197.9C22.0961 196.05 24.8661 180.38 29.7961 174.87L36.7061 174.8L39.5861 179.94L42.5561 178.5Z" fill="white"/>
<path d="M24.6662 193.87L23.0962 204.83H41.5162L40.5762 186.02L24.6662 193.87Z" fill="white"/>
<path d="M44.686 247.74C44.686 247.74 44.606 251.26 45.376 252.49C45.996 253.48 52.846 251.11 55.676 250.18C57.246 249.66 57.316 248.22 56.636 247.56C55.426 246.38 50.516 247.27 50.516 247.27L44.686 247.74Z" fill="#61B579"/>
<path d="M15.1762 244.77C15.1762 244.77 13.2762 247.74 13.2862 249.18C13.2962 250.35 20.3762 251.89 23.2862 252.57C24.8962 252.94 25.7062 251.76 25.4662 250.83C25.0462 249.2 20.3862 247.4 20.3862 247.4L15.1762 244.77Z" fill="#61B579"/>
<path d="M49.0961 175.09C48.5461 174.34 49.2461 172.87 49.9461 172.26C50.5361 171.74 51.2461 171.18 51.8161 170.9C53.0261 170.3 54.4461 170.42 55.0961 170.6C55.7461 170.79 55.9061 171.43 55.4061 171.55C55.4061 171.55 56.4861 172.02 56.4161 172.42C56.3461 172.82 54.9961 171.89 54.3561 172.43C53.7061 172.96 56.0661 172.84 56.2161 173.55C56.3661 174.26 53.2461 173.63 53.0061 174.61C53.0061 174.61 55.2961 173.72 55.5061 174.45C55.7161 175.18 53.2061 174.99 52.8561 175.41C52.5061 175.83 50.6161 177.14 50.6161 177.14L49.0961 175.09Z" fill="#FFBEAC"/>
<path d="M75.3662 275.52L81.3462 261.28H259.096L264.986 275.51L180.976 271.42L170.176 273.93L159.756 271.49L75.3662 275.52Z" fill="#345454"/>
<path d="M81.3462 261.28L102.486 242.71C102.486 242.71 155.976 231.37 170.216 242.71V262.95L81.3462 261.28Z" fill="white"/>
<path d="M81.3461 261.28L75.4561 275.51C75.4561 275.51 141.736 262.14 160.916 269.7C160.916 269.7 160.916 265.86 170.216 262.95C170.216 262.95 157.326 251.34 133.786 254.82C110.246 258.31 115.766 259.67 81.3461 261.28Z" fill="#E3D6B6"/>
<path d="M259.096 261.28L237.956 242.71C237.956 242.71 184.466 231.37 170.226 242.71V262.95L259.096 261.28Z" fill="white"/>
<path d="M259.096 261.28L264.986 275.51C264.986 275.51 198.706 262.14 179.526 269.7C179.526 269.7 179.526 265.86 170.226 262.95C170.226 262.95 183.116 251.34 206.656 254.82C230.196 258.31 224.676 259.67 259.096 261.28Z" fill="#E3D6B6"/>
<path d="M265.686 275.52L180.226 269.71C179.706 269.67 179.196 269.96 178.966 270.43C178.966 270.43 177.496 272.61 170.836 272.61C170.596 272.61 169.766 272.61 169.526 272.61C162.866 272.61 161.406 270.43 161.396 270.43C161.156 269.96 160.656 269.67 160.136 269.71L74.6763 275.52C73.9563 275.57 73.4063 276.2 73.4563 276.92C73.5063 277.61 74.0763 278.15 74.7663 278.15C74.7963 278.15 74.8263 278.15 74.8563 278.15L159.626 272.38C160.656 273.46 163.306 275.24 169.526 275.24C169.766 275.24 170.596 275.24 170.836 275.24C177.056 275.24 179.706 273.46 180.736 272.38L265.506 278.15C265.536 278.15 265.566 278.15 265.596 278.15C266.286 278.15 266.856 277.62 266.906 276.92C266.956 276.2 266.406 275.57 265.686 275.52Z" fill="#61B579"/>
<path d="M81.3461 265.21C81.1161 265.21 80.9161 265.03 80.9061 264.79C80.8961 264.55 81.0862 264.34 81.3262 264.33C104.666 263.23 109.586 262.26 117.736 260.66C121.686 259.88 126.156 259 133.726 257.88C146.896 255.93 156.746 258.71 162.686 261.38C162.906 261.48 163.006 261.74 162.906 261.96C162.806 262.18 162.546 262.28 162.326 262.18C156.486 259.55 146.806 256.83 133.856 258.75C126.306 259.87 121.846 260.75 117.906 261.53C109.716 263.15 104.776 264.12 81.3661 265.22C81.3661 265.21 81.3561 265.21 81.3461 265.21Z" fill="#BAA985"/>
<path d="M81.3461 267.98C81.1161 267.98 80.9161 267.8 80.9061 267.56C80.8961 267.32 81.0862 267.11 81.3262 267.1C102.376 266.11 111.116 264.62 118.826 263.3C123.656 262.47 128.206 261.69 135.156 261.17C146.756 260.29 155.146 261.09 161.556 263.67C161.776 263.76 161.886 264.02 161.796 264.24C161.706 264.46 161.446 264.57 161.226 264.48C154.936 261.95 146.676 261.18 135.216 262.04C128.306 262.56 123.766 263.34 118.966 264.16C111.236 265.48 102.466 266.99 81.3562 267.98C81.3662 267.98 81.3561 267.98 81.3461 267.98Z" fill="#BAA985"/>
<path d="M80.0162 271.53C79.7862 271.53 79.5962 271.36 79.5762 271.13C79.5562 270.89 79.7362 270.68 79.9762 270.66C91.7762 269.71 99.1962 268.61 107.046 267.44C114.436 266.34 122.086 265.21 133.746 264.2C150.126 262.78 154.996 264.25 159.666 266.32C159.886 266.42 159.986 266.68 159.886 266.9C159.786 267.12 159.526 267.22 159.306 267.12C154.756 265.1 149.986 263.66 133.816 265.07C122.176 266.08 114.546 267.21 107.166 268.3C99.2962 269.47 91.8662 270.57 80.0362 271.53C80.0362 271.53 80.0262 271.53 80.0162 271.53Z" fill="#BAA985"/>
<path d="M257.516 265.21C257.506 265.21 257.506 265.21 257.496 265.21C234.096 264.11 229.146 263.14 220.956 261.52C217.016 260.74 212.556 259.86 205.006 258.74C192.046 256.82 182.366 259.55 176.536 262.17C176.316 262.27 176.056 262.17 175.956 261.95C175.856 261.73 175.956 261.47 176.176 261.37C182.116 258.7 191.966 255.92 205.136 257.87C212.706 258.99 217.176 259.87 221.126 260.65C229.276 262.26 234.196 263.23 257.536 264.32C257.776 264.33 257.966 264.54 257.956 264.78C257.936 265.03 257.746 265.21 257.516 265.21Z" fill="#BAA985"/>
<path d="M257.516 267.98C257.506 267.98 257.506 267.98 257.496 267.98C236.396 266.99 227.626 265.49 219.886 264.16C215.076 263.34 210.546 262.56 203.636 262.04C192.176 261.18 183.916 261.95 177.626 264.48C177.406 264.57 177.146 264.46 177.056 264.24C176.966 264.02 177.076 263.76 177.296 263.67C183.716 261.09 192.106 260.29 203.696 261.17C210.646 261.69 215.206 262.47 220.026 263.3C227.736 264.62 236.476 266.12 257.526 267.1C257.766 267.11 257.956 267.32 257.946 267.56C257.936 267.79 257.746 267.98 257.516 267.98Z" fill="#BAA985"/>
<path d="M258.846 271.53C258.836 271.53 258.826 271.53 258.806 271.53C246.976 270.57 239.546 269.47 231.676 268.3C224.296 267.21 216.666 266.07 205.026 265.07C188.856 263.67 184.086 265.1 179.536 267.12C179.316 267.22 179.056 267.12 178.956 266.9C178.856 266.68 178.956 266.42 179.176 266.32C183.846 264.25 188.716 262.78 205.096 264.2C216.756 265.21 224.406 266.34 231.796 267.44C239.646 268.6 247.066 269.7 258.866 270.66C259.106 270.68 259.286 270.89 259.266 271.13C259.266 271.36 259.076 271.53 258.846 271.53Z" fill="#BAA985"/>
<path d="M170.216 261.03C169.976 261.03 169.776 260.83 169.776 260.59L169.736 244.31C169.736 244.07 169.926 243.87 170.176 243.87C170.416 243.87 170.616 244.07 170.616 244.31L170.656 260.59C170.656 260.83 170.466 261.03 170.216 261.03Z" fill="#BAA985"/>
<path d="M288.046 100.35C288.841 100.35 289.486 99.5171 289.486 98.4899C289.486 97.4626 288.841 96.6299 288.046 96.6299C287.251 96.6299 286.606 97.4626 286.606 98.4899C286.606 99.5171 287.251 100.35 288.046 100.35Z" fill="#BF743C"/>
<path d="M272.786 131.29C272.786 131.29 266.206 133.62 266.206 137.92C266.206 142.23 266.206 144.74 266.206 144.74H287.516L288.186 138.51C288.406 136.45 289.906 134.75 291.926 134.3C297.016 133.16 294.416 129.03 292.596 125.76H275.506L272.786 131.29Z" fill="#345454"/>
<path d="M300.386 121.53C300.386 121.53 296.646 105.14 292.786 103.53L287.276 101.77L279.716 101.47L274.926 103.98C273.326 105.04 272.306 106.78 272.176 108.7L272.386 114.49V125.76L290.356 127.16C292.286 129.64 297.546 125.29 299.166 124.51C300.266 123.98 300.796 122.69 300.386 121.53Z" fill="#C9DB57"/>
<path d="M279.706 103.22V97.5H285.626V99.17C285.626 100.44 287.256 101.77 287.256 101.77C287.406 102.07 281.296 107.77 281.296 107.77L279.706 103.22Z" fill="#FFBEAC"/>
<path d="M287.416 93.5001C287.416 93.5001 287.276 96.4401 286.416 98.7901C286.416 98.7901 283.196 104.07 278.086 103.11C274.876 102.51 273.666 97.7001 273.386 94.0301C273.136 90.7301 273.576 88.6201 275.176 86.4701C278.566 81.9301 284.676 84.5401 286.066 86.9001C286.936 88.3601 287.806 90.3201 287.416 93.5001Z" fill="#FFBEAC"/>
<path d="M276.196 94.5399C276.356 95.0299 276.186 95.5299 275.806 95.6599C275.426 95.7899 274.986 95.4999 274.816 95.0099C274.646 94.5199 274.826 94.0199 275.206 93.8899C275.586 93.7699 276.026 94.0599 276.196 94.5399Z" fill="#345454"/>
<path d="M281.746 95.1103C281.906 95.6003 281.736 96.1003 281.356 96.2303C280.976 96.3603 280.536 96.0703 280.366 95.5803C280.206 95.0903 280.376 94.5902 280.756 94.4602C281.146 94.3302 281.586 94.6203 281.746 95.1103Z" fill="#345454"/>
<path d="M278.206 97.4598C278.196 97.4598 278.196 97.4598 278.186 97.4598C277.756 97.3898 277.496 97.2298 277.406 96.9798C277.266 96.5998 277.596 96.2198 277.636 96.1698C277.706 96.0898 277.826 96.0798 277.906 96.1498C277.986 96.2198 277.996 96.3398 277.926 96.4198C277.856 96.4998 277.726 96.7098 277.776 96.8398C277.816 96.9398 277.986 97.0198 278.246 97.0598C278.356 97.0798 278.426 97.1798 278.406 97.2798C278.386 97.3898 278.306 97.4598 278.206 97.4598Z" fill="#345454"/>
<path d="M282.186 92.9702C282.156 92.9702 282.116 92.9602 282.086 92.9302C282.056 92.9002 281.276 92.1602 280.526 92.6902C280.456 92.7402 280.366 92.7102 280.326 92.6202C280.286 92.5302 280.306 92.4202 280.376 92.3702C281.296 91.7302 282.216 92.6102 282.256 92.6502C282.316 92.7102 282.336 92.8302 282.286 92.9102C282.266 92.9402 282.226 92.9602 282.186 92.9702Z" fill="#345454"/>
<path d="M276.156 92.3902C276.126 92.3902 276.096 92.3802 276.076 92.3602C276.046 92.3302 275.326 91.6702 274.796 92.2502C274.746 92.3002 274.676 92.2802 274.626 92.1902C274.586 92.1002 274.586 91.9902 274.636 91.9402C275.286 91.2302 276.136 92.0202 276.166 92.0502C276.226 92.1102 276.256 92.2202 276.226 92.3002C276.226 92.3502 276.196 92.3802 276.156 92.3902Z" fill="#345454"/>
<path d="M278.426 99.8598C277.236 99.8598 276.586 98.9098 276.576 98.8998C276.516 98.8198 276.546 98.6998 276.626 98.6498C276.706 98.5898 276.826 98.6198 276.876 98.6998C276.916 98.7698 277.966 100.27 279.926 98.9698C280.006 98.9098 280.126 98.9398 280.176 99.0198C280.236 99.0998 280.206 99.2198 280.126 99.2698C279.486 99.7098 278.916 99.8598 278.426 99.8598Z" fill="#345454"/>
<path d="M277.906 144.74L273.326 176.84H277.906L285.716 144.74H277.906Z" fill="#FFBEAC"/>
<path d="M273.326 176.84C273.326 176.84 272.816 177.51 272.216 178.48C270.706 180.9 268.586 185.2 272.166 185.63C275.486 186.03 277.786 181.08 278.376 178.34C278.676 176.95 277.896 176.84 277.896 176.84H273.326Z" fill="#345454"/>
<path d="M269.246 144.74L283.486 165.31L287.516 162.19L277.906 144.74H269.246Z" fill="#FFBEAC"/>
<path d="M283.486 165.31C283.486 165.31 281.876 171.62 280.546 172.86C279.216 174.09 281.866 175.96 284.746 172.86C287.636 169.76 290.356 166.64 290.736 165.31C291.116 163.99 289.146 163.57 287.506 162.18L283.486 165.31Z" fill="#345454"/>
<path d="M268.826 116.7L269.906 116.03C269.906 116.03 278.906 115.19 279.286 117.58C279.286 117.58 269.906 117.82 268.826 116.7Z" fill="white"/>
<path d="M289.706 117.06L289.426 116.04C289.426 116.04 278.886 115.07 279.286 117.57L289.776 117.63L289.706 117.06Z" fill="white"/>
<path d="M267.746 116.8C267.746 116.8 274.836 116.01 279.286 117.57L281.456 131.28C281.456 131.28 274.736 130.82 271.006 131.18L267.746 116.8Z" fill="#FF9C2A"/>
<path d="M291.606 131.58L289.706 117.06C289.706 117.06 283.436 115.95 279.286 117.57L281.456 131.28C281.466 131.29 289.286 130.86 291.606 131.58Z" fill="#FF9C2A"/>
<path d="M281.056 130.29C280.926 130.29 280.806 130.19 280.786 130.06L279.176 118.63C279.156 118.48 279.256 118.34 279.406 118.32C279.556 118.3 279.696 118.4 279.716 118.55L281.326 129.98C281.346 130.13 281.246 130.27 281.096 130.29C281.086 130.29 281.066 130.29 281.056 130.29Z" fill="#A97F54"/>
<path d="M291.886 128.32C291.886 128.32 290.576 128.9 289.866 128.66C289.156 128.43 289.286 127.94 289.286 127.94C289.286 127.94 287.616 127.7 287.256 126.96C286.896 126.22 286.636 126.37 286.936 125.94C287.176 125.59 286.766 125.48 287.266 124.69C287.776 123.89 287.476 123.84 287.476 123.84C287.476 123.84 287.486 123.29 287.796 122.91C288.116 122.53 288.556 122.5 288.556 122.5C288.556 122.5 288.026 122.26 288.416 121.84C288.806 121.42 291.826 122.19 292.126 122.64C293.326 124.37 291.886 128.32 291.886 128.32Z" fill="#FFBEAC"/>
<path d="M268.256 128.32C268.256 128.32 269.566 128.9 270.276 128.66C270.986 128.43 270.856 127.94 270.856 127.94C270.856 127.94 272.526 127.7 272.886 126.96C273.246 126.22 273.506 126.37 273.206 125.94C272.966 125.59 273.376 125.48 272.876 124.69C272.366 123.89 272.666 123.84 272.666 123.84C272.666 123.84 272.656 123.29 272.346 122.91C272.026 122.53 271.586 122.5 271.586 122.5C271.586 122.5 272.116 122.26 271.726 121.84C271.336 121.42 268.316 122.19 268.016 122.64C266.806 124.37 268.256 128.32 268.256 128.32Z" fill="#FFBEAC"/>
<path d="M289.226 107.32C289.226 108.35 288.586 109.18 287.786 109.18C286.996 109.18 286.346 108.35 286.346 107.32C286.346 106.29 286.986 105.46 287.786 105.46C288.576 105.46 289.226 106.29 289.226 107.32Z" fill="#BF743C"/>
<path d="M288.046 105.93C288.841 105.93 289.486 105.097 289.486 104.07C289.486 103.043 288.841 102.21 288.046 102.21C287.251 102.21 286.606 103.043 286.606 104.07C286.606 105.097 287.251 105.93 288.046 105.93Z" fill="#BF743C"/>
<path d="M288.046 102.96C288.841 102.96 289.486 102.127 289.486 101.1C289.486 100.073 288.841 99.2402 288.046 99.2402C287.251 99.2402 286.606 100.073 286.606 101.1C286.606 102.127 287.251 102.96 288.046 102.96Z" fill="#BF743C"/>
<path d="M287.716 108.35C287.716 108.35 286.916 109.19 287.066 111.34C287.126 112.2 287.006 113.06 286.666 113.85L286.596 114H289.066L289.406 112.59L289.526 114H289.986C289.986 114 290.536 109.53 288.236 108.43L287.716 108.35Z" fill="#BF743C"/>
<path d="M290.726 91.3498C290.706 90.9798 290.646 90.6099 290.576 90.2499H290.606C289.366 85.1399 284.626 80.1499 279.336 83.1699C279.336 83.1699 277.076 83.3099 276.296 83.7699C274.266 84.9599 273.816 87.0299 273.716 88.0499C272.816 91.2399 273.436 94.4298 273.436 94.4298C273.446 91.7698 274.616 89.6699 274.616 89.6699C276.546 90.5799 280.046 90.4898 282.596 90.7098C282.876 90.7298 283.086 90.4699 282.996 90.1999C282.576 88.9299 283.036 88.2199 283.036 88.2199C283.056 88.7699 283.126 89.2199 283.226 89.5899C283.386 90.1799 283.846 90.6298 284.416 90.8498C285.076 91.0998 285.556 91.4999 285.746 92.1199C286.076 93.1699 286.276 94.2599 286.276 94.2599L285.746 99.7199C285.726 99.7299 291.086 97.1598 290.726 91.3498Z" fill="#BF743C"/>
<path d="M285.466 94.9098C284.806 96.0098 284.876 97.2598 285.626 97.6998C286.366 98.1398 287.506 97.6098 288.156 96.5098C288.816 95.4098 288.746 94.1598 287.996 93.7198C287.256 93.2798 286.116 93.8198 285.466 94.9098Z" fill="#FFBEAC"/>
<path d="M326.196 240.14C326.196 242.75 320.136 244.86 312.656 244.86C305.176 244.86 299.116 242.75 299.116 240.14C299.116 237.53 305.176 235.42 312.656 235.42C320.126 235.42 326.196 237.54 326.196 240.14Z" fill="#D35440"/>
<path d="M321.356 239.49H303.946L305.356 238.75C309.546 236.54 311.006 233.69 309.306 231.01H315.996C314.296 233.69 315.756 236.54 319.946 238.75L321.356 239.49Z" fill="#D35440"/>
<path d="M311.936 231.93C308.326 231.93 304.716 231.19 301.296 229.72C294.686 226.88 289.576 221.63 286.906 214.94C284.246 208.25 284.336 200.93 287.186 194.32C290.026 187.71 295.276 182.6 301.966 179.93L303.356 179.38L304.466 182.16L303.076 182.71C297.136 185.08 292.466 189.62 289.936 195.5C287.406 201.38 287.316 207.89 289.686 213.83C292.056 219.77 296.596 224.44 302.476 226.97C308.356 229.5 314.866 229.59 320.806 227.22L322.196 226.67L323.306 229.45L321.916 230C318.686 231.28 315.306 231.93 311.936 231.93Z" fill="#F69400"/>
<path d="M312.656 227.23C325.017 227.23 335.036 217.21 335.036 204.85C335.036 192.49 325.017 182.47 312.656 182.47C300.296 182.47 290.276 192.49 290.276 204.85C290.276 217.21 300.296 227.23 312.656 227.23Z" fill="#00C0EA"/>
<path d="M327.396 191.4C327.396 191.4 328.246 192.96 327.396 193.74C326.546 194.52 326.346 195.5 325.516 195.06C324.686 194.62 325.176 193.85 324.546 193.29C323.916 192.72 323.326 192.14 323.566 191.41C323.806 190.68 324.496 190 325.636 190.24C326.786 190.47 327.396 191.4 327.396 191.4Z" fill="#C9DB57"/>
<path d="M326.346 202.81C326.346 202.81 327.516 203.05 327.176 203.88C326.836 204.71 326.396 204.86 326.006 204.86C325.616 204.86 325.076 204.23 325.326 203.64C325.566 203.05 326.346 202.81 326.346 202.81Z" fill="#C9DB57"/>
<path d="M301.436 211.73C301.436 211.73 302.496 211.78 302.476 212.85C302.456 213.92 302.746 215.09 301.436 214.56C300.116 214.02 299.976 213.83 299.286 213.73C298.606 213.63 299.036 212.07 300.166 211.73C300.866 211.52 301.436 211.73 301.436 211.73Z" fill="#C9DB57"/>
<path d="M327.956 217.92C326.106 218.51 325.806 215.97 326.586 214.6C327.366 213.23 326.686 212.75 323.566 212.55C320.446 212.36 322.106 209.82 322.596 208.02C323.086 206.22 325.036 206.31 326.106 206.02C327.176 205.73 328.546 206.31 329.616 204.85C330.686 203.39 329.716 203.19 328.546 203C327.376 202.8 327.766 202.51 327.396 201.34C327.026 200.17 328.246 199.2 330.196 197.79C331.086 197.15 331.996 196.01 332.716 194.95C334.186 197.93 335.026 201.29 335.026 204.85C335.026 209.04 333.866 212.96 331.866 216.32C331.776 216.3 331.686 216.28 331.606 216.26C330.486 216.07 329.816 217.34 327.956 217.92Z" fill="#C9DB57"/>
<path d="M300.556 186.03C301.536 185.4 302.656 187.98 302.406 188.86C302.016 190.22 300.066 191.49 300.166 192.57C300.266 193.64 300.556 193.74 301.826 194.42C303.096 195.1 302.416 199.11 300.656 200.23C298.896 201.35 298.806 201.83 296.466 201.93C294.126 202.03 292.856 202.32 292.856 204.17C292.856 206.02 293.246 207.49 296.176 208.85C299.106 210.22 298.776 211.19 297.676 212.36C296.566 213.53 296.476 213.63 296.566 214.41C296.666 215.19 295.106 214.8 294.226 214.41C293.346 214.02 292.566 211.68 292.856 210.46C293.086 209.52 292.256 207.97 290.516 208.08C290.366 207.03 290.276 205.95 290.276 204.85C290.276 196.95 294.376 190.01 300.556 186.03Z" fill="#C9DB57"/>
<path d="M325.226 189.54C324.156 189.34 324.736 187.3 323.276 187.49C321.816 187.69 320.346 189.15 318.596 188.52C316.836 187.88 315.966 187.3 315.276 186.32C314.596 185.34 313.906 186.42 311.476 186.32C309.036 186.22 309.136 182.91 309.136 182.91L312.676 182.47C318.716 182.47 324.196 184.88 328.226 188.78C327.176 189.2 325.836 189.66 325.226 189.54Z" fill="#C9DB57"/>
<path d="M326.196 240.14C326.196 242.75 320.136 244.86 312.656 244.86C305.176 244.86 299.116 242.75 299.116 240.14V242.21C299.116 244.82 305.176 246.93 312.656 246.93C320.136 246.93 326.196 244.82 326.196 242.21V240.14Z" fill="#A95131"/>
</svg>
