<svg width="296" height="277" viewBox="0 0 296 277" fill="none" xmlns="http://www.w3.org/2000/svg">
<ellipse cx="147.515" cy="138.42" rx="147.515" ry="138.42" fill="#336CCE"/>
<path d="M112.3 147.651C112.3 147.651 131.58 153.331 144.81 165.111C158.04 176.901 160.3 206.311 160.3 206.311H44.2002C44.2002 206.311 39.9902 160.301 74.8102 152.921C109.63 145.551 112.3 147.651 112.3 147.651Z" fill="#FFCC22"/>
<path d="M112.49 132.691L113.591 145.161L123.091 151.741C123.091 151.741 118.601 182.041 92.0205 172.321C92.0205 172.321 80.7205 166.651 85.9205 152.221L81.2505 136.421L112.49 132.691Z" fill="#FFBEAC"/>
<path d="M128.4 105.541C128.4 105.541 129.78 119.561 127.39 131.311C127.39 131.311 115.83 158.551 91.0004 157.601C61.3604 156.461 52.7004 104.711 65.5804 80.8411C78.4604 56.9711 109.19 65.0411 117.41 75.2311C122.51 81.5511 128.04 90.2311 128.4 105.541Z" fill="#FFBEAC"/>
<path d="M81.1402 124.891C81.4002 127.341 80.0602 129.491 78.1402 129.701C76.2202 129.901 74.4602 128.081 74.2002 125.631C73.9402 123.181 75.2802 121.031 77.2002 120.821C79.1102 120.621 80.8802 122.441 81.1402 124.891Z" fill="#345454"/>
<path d="M109.15 117.531C109.41 119.981 108.07 122.131 106.15 122.341C104.23 122.541 102.47 120.721 102.21 118.271C101.95 115.821 103.29 113.671 105.21 113.461C107.13 113.261 108.89 115.081 109.15 117.531Z" fill="#345454"/>
<path d="M90.1002 127.431C90.1002 127.401 90.1102 127.361 90.1202 127.331C90.6002 125.331 91.4602 124.141 92.6902 123.801C94.5402 123.291 96.2502 125.001 96.4402 125.201C96.7902 125.571 96.7902 126.151 96.4202 126.511C96.0502 126.871 95.4702 126.861 95.1102 126.491C94.7502 126.121 93.8102 125.421 93.1802 125.591C92.6702 125.731 92.2202 126.501 91.9302 127.751C91.8102 128.251 91.3102 128.561 90.8102 128.441C90.3502 128.331 90.0502 127.891 90.1002 127.431Z" fill="#345454"/>
<path d="M108.55 106.171C108.4 106.211 108.22 106.191 108.06 106.091C107.87 105.981 103.46 103.361 100.52 106.611C100.25 106.911 99.8004 106.851 99.5104 106.481C99.2304 106.101 99.2203 105.561 99.4903 105.251C103.09 101.291 108.34 104.411 108.56 104.551C108.93 104.781 109.11 105.301 108.98 105.731C108.9 105.961 108.74 106.111 108.55 106.171Z" fill="#345454"/>
<path d="M76.2605 111.911C76.1505 111.981 76.0105 111.991 75.8405 111.921C75.6505 111.851 71.3005 110.161 69.9705 113.691C69.8505 114.021 69.4705 114.041 69.1205 113.741C68.7705 113.441 68.5905 112.931 68.7205 112.601C70.3405 108.281 75.5305 110.311 75.7505 110.401C76.1205 110.551 76.4305 111.011 76.4605 111.431C76.4805 111.661 76.4005 111.831 76.2605 111.911Z" fill="#345454"/>
<path d="M136.36 95.1111C132.13 72.8411 116.65 62.9211 116.02 62.5511C116.01 62.5411 114.29 61.5811 113.41 61.1711C113.4 61.1611 113.39 61.1611 113.37 61.1511C112.49 60.7511 111.6 60.4011 110.69 60.1011C110.68 60.1011 110.67 60.0911 110.65 60.0911C109.74 59.7911 108.82 59.5511 107.88 59.3511C107.87 59.3511 107.85 59.3411 107.84 59.3411C106.9 59.1511 105.95 59.0211 104.99 58.9411C104.97 58.9411 104.96 58.9411 104.94 58.9411C104.21 58.8811 103.48 58.8611 102.74 58.8711C97.41 58.3611 91.2201 59.0411 83.9401 61.2011C74.1801 64.1011 68.44 69.1011 65.17 74.6311C65.17 74.6311 60.2 82.9411 59.75 84.0711C57.12 90.7011 52.8601 95.5911 53.9001 96.5611C54.9401 97.5311 59.0201 91.6111 59.0201 91.6111C59.0201 91.6111 56.6901 102.271 57.8801 102.251C58.3501 102.241 59.0401 101.351 59.7001 100.271C59.7301 101.371 59.8001 102.201 59.9501 102.491C60.5701 103.761 66.99 93.1311 66.99 93.1311C66.99 93.1311 65.08 96.4011 66.85 97.7611C68.62 99.1111 73.98 92.4111 73.98 92.4111C73.98 92.4111 72.33 95.1711 73.85 96.5711C75.08 97.7011 81.23 92.3111 81.23 92.3111C81.23 92.3111 80.7001 96.4111 83.5301 95.0911C87.3401 93.3011 113.3 84.0111 113.3 84.0111C114.41 86.0111 121.45 100.021 123.49 110.001L128.5 121.731L127.39 131.301C127.38 131.301 141.56 122.471 136.36 95.1111Z" fill="#345454"/>
<path d="M123.49 110.001C121.15 115.661 122.36 121.531 126.19 123.111C130.02 124.691 135.01 121.381 137.35 115.721C139.69 110.061 138.48 104.191 134.65 102.611C130.83 101.031 125.83 104.341 123.49 110.001Z" fill="#FFBEAC"/>
<path d="M83.3398 137.201C83.3398 137.201 87.0698 146.261 96.7098 144.181C108.49 141.631 106.55 132.291 106.55 132.291L83.3398 137.201Z" fill="white"/>
<path d="M106.67 230.221V233.301L147.6 206.871V203.801L106.67 230.221Z" fill="#E8D8B6"/>
<path d="M52.8398 233.301C53.4098 233.211 69.0798 228.151 81.3598 228.171C95.5998 228.191 106.68 233.301 106.68 233.301V230.221C106.68 230.221 96.6198 225.091 81.3598 225.091C66.0998 225.091 52.8398 230.221 52.8398 230.221V233.301Z" fill="#E8D8B6"/>
<path d="M4 228.791C4 228.791 15.31 228.151 27.58 228.171C41.82 228.191 52.83 233.301 52.83 233.301V230.221C52.83 230.221 43.06 225.091 27.58 225.091C12.1 225.091 4 225.711 4 225.711V228.791Z" fill="#E8D8B6"/>
<path d="M106.67 230.221C106.67 230.221 95.59 225.111 81.35 225.091C69.07 225.071 53.4001 230.131 52.8301 230.221L95.0801 202.941C95.6501 202.851 111.32 197.791 123.6 197.811C137.84 197.831 148.92 202.941 148.92 202.941L106.67 230.221Z" fill="white"/>
<path d="M52.8398 230.221C52.8398 230.221 41.8298 225.111 27.5898 225.091C15.3098 225.071 4.00977 225.711 4.00977 225.711L46.2498 198.431C46.2498 198.431 57.5598 197.791 69.8298 197.811C84.0698 197.831 95.0798 202.941 95.0798 202.941L52.8398 230.221Z" fill="white"/>
<path d="M106.07 224.611C106.01 224.611 105.95 224.601 105.9 224.581C101.34 223.141 94.1897 221.421 85.9797 221.411C85.9597 221.411 85.9397 221.411 85.9097 221.411C81.4197 221.411 75.9398 222.091 69.6198 223.441C69.3098 223.511 69.0098 223.311 68.9398 223.001C68.8698 222.691 69.0698 222.391 69.3798 222.321C75.7698 220.961 81.3298 220.261 85.8998 220.261C85.9198 220.261 85.9398 220.261 85.9698 220.261C94.3198 220.271 101.6 222.021 106.23 223.491C106.53 223.591 106.7 223.911 106.6 224.211C106.54 224.461 106.32 224.611 106.07 224.611Z" fill="#828B88"/>
<path d="M112.32 219.611C112.26 219.611 112.2 219.601 112.15 219.581C107.59 218.141 100.44 216.421 92.2299 216.411C92.1999 216.411 92.1699 216.411 92.1399 216.411C88.2499 216.411 84.3399 216.801 79.8599 217.631C79.5499 217.691 79.2499 217.481 79.1899 217.171C79.1299 216.861 79.34 216.561 79.65 216.501C84.2 215.651 88.1699 215.261 92.1399 215.261C92.1699 215.261 92.1999 215.261 92.2299 215.261C100.58 215.271 107.86 217.021 112.49 218.491C112.79 218.591 112.96 218.911 112.86 219.211C112.79 219.451 112.56 219.611 112.32 219.611Z" fill="#828B88"/>
<path d="M121.96 213.911C121.9 213.911 121.83 213.901 121.77 213.881C121.74 213.871 118.63 212.811 112.92 212.101C107.65 211.451 99.02 210.981 87.86 212.431C87.55 212.471 87.26 212.251 87.22 211.941C87.18 211.631 87.4 211.341 87.71 211.301C99.02 209.831 107.77 210.311 113.11 210.981C118.92 211.701 122.02 212.761 122.15 212.811C122.45 212.911 122.61 213.241 122.5 213.541C122.42 213.771 122.2 213.911 121.96 213.911Z" fill="#828B88"/>
<path d="M131.89 208.871C131.83 208.871 131.77 208.861 131.72 208.841C131.39 208.741 131.05 208.621 130.67 208.501C125.76 206.891 116.63 203.881 97.2001 206.811C96.8901 206.861 96.6001 206.641 96.5501 206.331C96.5001 206.021 96.7201 205.731 97.0301 205.681C116.72 202.711 126.03 205.771 131.02 207.411C131.39 207.531 131.73 207.641 132.06 207.751C132.36 207.851 132.53 208.171 132.43 208.471C132.36 208.721 132.13 208.871 131.89 208.871Z" fill="#828B88"/>
<path d="M55.4599 229.101C55.2699 229.101 55.0899 229.011 54.9799 228.841C54.8099 228.571 54.8799 228.221 55.1499 228.051L93.4599 203.321C93.7299 203.151 94.0799 203.221 94.2499 203.491C94.4199 203.761 94.3499 204.111 94.0799 204.281L55.7699 229.011C55.6699 229.071 55.5699 229.101 55.4599 229.101Z" fill="#E8D8B6"/>
<path d="M56.8298 223.981C56.7498 223.981 56.6698 223.961 56.5898 223.931C56.4798 223.881 45.5198 218.871 31.5798 218.851C28.7298 218.841 25.7198 218.881 22.5998 218.941C22.2798 218.961 22.0198 218.701 22.0198 218.381C22.0098 218.061 22.2598 217.801 22.5798 217.801C25.6998 217.731 28.7298 217.711 31.5798 217.711C45.7798 217.731 56.9598 222.841 57.0698 222.901C57.3598 223.031 57.4798 223.371 57.3498 223.661C57.2498 223.861 57.0398 223.981 56.8298 223.981Z" fill="#828B88"/>
<path d="M63.7999 218.531C63.7199 218.531 63.6399 218.511 63.5599 218.481C63.4499 218.431 52.4899 213.421 38.5499 213.401C35.6599 213.391 32.5999 213.431 29.4299 213.491H29.4199C29.1099 213.491 28.8499 213.241 28.8499 212.931C28.8399 212.611 29.0899 212.351 29.4099 212.351C32.5799 212.281 35.6599 212.251 38.5599 212.261C52.7599 212.281 63.9399 217.401 64.0499 217.451C64.3399 217.581 64.4599 217.921 64.3299 218.211C64.2199 218.401 64.0099 218.531 63.7999 218.531Z" fill="#828B88"/>
<path d="M71.42 213.401C71.34 213.401 71.26 213.381 71.18 213.351C71.07 213.301 60.11 208.291 46.17 208.271C42.98 208.261 39.56 208.301 36.01 208.391H36C35.69 208.391 35.43 208.141 35.43 207.831C35.42 207.511 35.67 207.251 35.99 207.241C39.55 207.161 42.98 207.121 46.18 207.121C60.38 207.141 71.56 212.251 71.67 212.311C71.96 212.441 72.08 212.781 71.95 213.071C71.84 213.281 71.63 213.401 71.42 213.401Z" fill="#828B88"/>
<path d="M38.2898 160.761L37.3198 161.331C35.9198 162.151 35.6598 164.311 36.7398 166.161L59.6598 205.211L65.7098 201.661L42.7898 162.611C41.7098 160.761 39.6998 159.941 38.2898 160.761Z" fill="#FF9C2A"/>
<path d="M65.72 201.651C65.72 201.661 65.72 201.661 65.72 201.651V201.661L67.2599 210.801C67.2999 211.031 67.0899 211.151 66.9099 211.011L59.6799 205.211C59.6799 205.211 59.6799 205.201 59.6699 205.201C59.6799 205.211 59.63 203.261 61.84 201.961C64.04 200.671 65.72 201.661 65.72 201.651Z" fill="#FFBEAC"/>
<path d="M66.9096 208.551L67.2797 210.751C67.3297 211.041 67.0696 211.181 66.8496 211.001L65.1096 209.611L62.8897 207.831C62.8897 207.831 62.8797 206.801 64.2097 206.021C65.5397 205.241 66.4296 205.751 66.4296 205.751L66.9096 208.551Z" fill="#345454"/>
<path d="M42.3098 172.571C42.3098 172.571 51.8897 174.181 54.5997 177.711C57.2997 181.241 61.3898 185.731 59.1498 188.421C56.9098 191.111 56.9097 191.111 56.9097 191.111C56.9097 191.111 59.9698 195.691 57.2098 197.931C54.4498 200.171 59.2298 205.801 51.7798 204.691C44.3298 203.581 34.1898 200.231 34.7498 191.041C35.3098 181.841 37.7898 171.501 42.3098 172.571Z" fill="#FFBEAC"/>
<path d="M235.95 113.911L265.57 122.741C272.5 124.811 277.77 130.481 279.31 137.551L278.98 206.191H171.07V138.981C171.07 131.461 175.32 124.581 182.04 121.211L194.64 114.901L235.95 113.911Z" fill="#BF743C"/>
<path d="M194.64 114.901L192.33 116.061C190.39 135.891 187.88 171.801 190.67 206.191H228C229.48 158.701 235.94 113.911 235.94 113.911L194.64 114.901Z" fill="white"/>
<path d="M193.56 112.411L199.44 142.081L235.95 113.911C235.95 113.911 224.56 108.321 220.75 100.571L192.33 106.201L193.56 112.411Z" fill="#FFBEAC"/>
<path d="M235.38 46.8511C225.27 25.8911 200.09 17.0811 179.12 27.1911C165.54 33.7311 155.69 47.0711 154.15 61.0211C153.4 65.0011 155.62 72.4611 157.11 81.8611C157.62 85.1111 157.22 88.0811 155.96 91.1211C155.16 93.0311 154.42 95.1511 154.29 96.6211C154.01 99.9511 158.61 101.751 158.61 101.751C158.61 101.751 166.85 122.711 173.87 123.631C175.43 123.831 177.3 123.801 179.26 123.631C187.27 122.941 221.33 102.851 222.37 99.0811C237.91 85.5211 244.33 65.4311 235.38 46.8511Z" fill="#FFBEAC"/>
<path d="M166.05 82.1711C166.61 84.3411 165.68 86.4611 163.98 86.9011C162.28 87.3411 160.45 85.9311 159.89 83.7611C159.33 81.5911 160.26 79.4711 161.96 79.0311C163.66 78.5911 165.49 80.0011 166.05 82.1711Z" fill="#345454"/>
<path d="M164.47 110.441C166.66 109.881 171.37 107.981 172.29 101.991C172.35 101.611 172.09 101.261 171.71 101.201C171.34 101.141 170.98 101.401 170.92 101.781C169.87 108.541 163.48 109.261 163.2 109.291C162.81 109.341 162.54 109.671 162.58 110.051C162.62 110.431 162.95 110.711 163.33 110.671C163.37 110.661 163.8 110.611 164.47 110.441Z" fill="#345454"/>
<path d="M167.26 70.7511C167.14 70.7911 166.99 70.7711 166.86 70.6911C166.71 70.6011 163.12 68.4711 160.72 71.1111C160.5 71.3511 160.13 71.3111 159.9 71.0011C159.67 70.6911 159.66 70.2511 159.89 70.0011C162.82 66.7711 167.09 69.3211 167.27 69.4311C167.57 69.6111 167.72 70.0411 167.61 70.3911C167.55 70.5811 167.42 70.7011 167.26 70.7511Z" fill="#345454"/>
<path d="M199.99 199.931C198.13 196.671 196.96 189.221 191.14 188.051C191.14 188.051 186.25 191.081 182.52 188.051C178.79 185.021 173.44 181.761 168.55 183.161C163.66 184.561 152.48 188.751 149.68 191.081C148.82 191.801 136.47 199.301 130.09 203.161C128.21 204.301 127.94 206.921 129.56 208.411C130.57 209.341 132.05 209.561 133.28 208.951L145.7 202.801C146.4 202.621 147.04 202.251 147.57 201.851L147.6 201.831C146.34 203.381 145.26 205.591 148.29 206.451C152.06 207.531 154.72 205.011 155.74 203.801C154.98 204.871 153.72 207.111 155.27 208.321C157.37 209.951 163.65 206.691 163.65 206.691C163.65 206.691 163.65 209.951 167.61 210.421C171.57 210.891 182.75 210.651 186.48 208.321C190.21 205.991 193.47 205.531 196.03 205.531C198.6 205.511 201.86 203.191 199.99 199.931Z" fill="#FFBEAC"/>
<path d="M166.1 92.1811C158.8 92.1811 155.94 86.1911 154.76 83.7311C154.66 83.5111 154.56 83.3211 154.48 83.1511C153.19 80.6011 153.94 78.9411 154.11 78.6311C155.88 74.8411 161.83 72.581 166.96 72.021C173.81 71.281 175.06 74.0811 176.38 77.0611C176.53 77.4011 176.68 77.7411 176.85 78.0911C178.41 81.3811 178.65 84.341 177.53 86.661C176.36 89.091 173.75 90.8011 169.78 91.7411C168.43 92.041 167.21 92.1811 166.1 92.1811ZM155.36 79.301C155.32 79.371 154.74 80.4911 155.75 82.4911C155.84 82.6711 155.94 82.8711 156.05 83.1011C157.5 86.1311 160.51 92.4311 169.44 90.3211C172.97 89.4911 175.25 88.041 176.23 86.021C177.39 83.611 176.5 80.701 175.54 78.691C175.37 78.331 175.21 77.9711 175.06 77.6311C173.82 74.8311 172.92 72.801 167.11 73.441C160.54 74.151 156.49 76.8711 155.4 79.2511C155.38 79.2611 155.37 79.281 155.36 79.301Z" fill="#BF743C"/>
<path d="M176.18 79.1011C175.89 79.1011 175.62 78.9211 175.51 78.6311C175.37 78.2611 175.56 77.8511 175.93 77.7111L196.77 69.9812C197.14 69.8412 197.55 70.0311 197.69 70.4011C197.83 70.7711 197.64 71.1811 197.27 71.3211L176.43 79.0511C176.35 79.0911 176.27 79.1011 176.18 79.1011Z" fill="#BF743C"/>
<path d="M235.37 46.8511C228.95 33.5211 216.43 25.1211 202.78 23.3511H202.77C199.29 22.9011 195.73 22.8811 192.18 23.3311C156.76 26.0911 141.76 57.3211 142.19 58.8811C142.66 60.5811 148.93 57.4111 148.93 57.4111C148.93 57.4111 147.08 59.5111 145.22 62.4811C143.36 65.4511 148.93 63.7111 148.93 63.7111C145.19 70.2411 154.66 68.6911 154.66 68.6911L183.35 60.8511C186.59 62.9711 190.19 65.6611 194.18 69.0311C205.48 78.6011 216.92 98.1511 220.9 100.881L224.89 97.0711C239.01 84.9211 243.84 64.4111 235.37 46.8511Z" fill="#345454"/>
<path d="M195.88 75.9612C195.91 81.9512 199.36 86.7912 203.57 86.7612C207.79 86.7412 211.18 81.8612 211.15 75.8812C211.12 69.8912 207.67 65.0512 203.46 65.0812C199.25 65.1012 195.85 69.9712 195.88 75.9612Z" fill="#FFBEAC"/>
<path d="M173.47 248.151L175.45 248.961L174.54 254.701L132.6 236.411C131.06 235.741 129.97 234.331 129.7 232.681L129.06 228.791L173.47 248.151Z" fill="#345454"/>
<path d="M216.75 212.641L130.39 226.771C128.78 227.031 128.5 229.241 130 229.891L175.02 249.521C175.09 249.551 175.16 249.561 175.23 249.551L265.84 234.731C266.21 234.671 266.27 234.171 265.93 234.021L216.97 212.671C216.89 212.641 216.82 212.631 216.75 212.641Z" fill="#3588CC"/>
<path d="M190.79 219.861L200.88 224.261C201.35 224.461 201.26 225.151 200.76 225.241L175.22 229.421C174.46 229.551 173.67 229.451 172.96 229.141L162.8 224.711C162.33 224.511 162.42 223.821 162.92 223.731L188.39 219.561C189.21 219.431 190.04 219.531 190.79 219.861Z" fill="#00C0EA"/>
<path d="M255.6 234.121L176.6 247.041C175.82 247.171 175.02 247.071 174.29 246.751L149.96 236.101C149.34 235.831 149.46 234.931 150.12 234.821L230.58 221.661C231.28 221.551 231.99 221.641 232.64 221.921L255.84 232.071C256.84 232.511 256.66 233.951 255.6 234.121Z" fill="#00C0EA"/>
<path d="M271.81 238.781L174.55 254.691L186.79 177.211C187.8 172.041 191.92 168.051 197.12 167.201L283.1 153.131C289.11 152.151 292.33 155.511 291.16 161.481L280.32 230.211C279.63 234.601 276.2 238.061 271.81 238.781Z" fill="#3588CC"/>
<path d="M244.82 203.661C245.3 206.581 243.32 209.331 240.4 209.811C237.48 210.291 234.73 208.311 234.25 205.391C233.77 202.471 235.75 199.721 238.67 199.241C241.59 198.761 244.34 200.741 244.82 203.661Z" fill="white"/>
</svg>
