<svg width="334" height="277" viewBox="0 0 334 277" fill="none" xmlns="http://www.w3.org/2000/svg">
<g filter="url(#filter0_i_4112_126463)">
<g clip-path="url(#clip0_4112_126463)">
<rect x="27.5293" width="295.026" height="276.84" rx="138.42" fill="#D6E2F5"/>
<path d="M330.565 162.632V285.156H27.5288V171.453C123.252 172.703 232.436 164.141 330.565 162.632Z" fill="#CF3135"/>
</g>
</g>
<path d="M168.775 120.419C168.775 120.419 181.151 119.448 186.783 125.265C203.393 142.454 207.726 166.945 207.726 166.945H109.131C109.131 166.945 114.053 146.252 117.622 135.971C121.191 125.691 134.102 124.359 134.102 124.359L168.775 120.419Z" fill="#C9DB57"/>
<path d="M156.652 109.364L157.885 115.203C158.584 118.499 161.498 120.867 164.87 120.867C164.848 120.616 162.578 134.585 141.46 138.853C141.46 138.853 130.35 140.37 133.559 126.335L127.971 116.359L156.652 109.364Z" fill="#FFBEAC"/>
<path d="M109.788 106.658C109.788 106.658 100.915 116.96 100.642 121.37C100.369 125.768 110.115 127.569 110.115 127.569C110.115 127.569 111.971 122.963 112.287 121.402C112.287 121.402 112.298 125.484 111.272 127.427L114.066 128.54C114.066 128.54 118.093 122.93 117.58 114.952C117.068 106.963 115.016 101.648 109.788 106.658Z" fill="#BF743C"/>
<path d="M172.291 97.7416C172.291 97.7416 183.521 105.414 184.918 109.605C186.315 113.785 177.365 118.03 177.365 118.03C177.365 118.03 174.386 114.058 173.677 112.628C173.677 112.628 174.724 116.579 176.209 118.183L173.797 119.984C173.797 119.984 168.46 115.607 166.899 107.76C165.328 99.9025 165.939 94.2383 172.291 97.7416Z" fill="#BF743C"/>
<path d="M101.94 79.2752C101.94 79.2752 95.3044 50.8994 124.029 40.826C138.152 35.8712 150.997 35.7184 160.743 43.358C169.922 50.5502 175.946 62.9591 174.058 74.4622L173.229 79.4607L104.33 88.4864L101.94 79.2752Z" fill="#BF743C"/>
<path d="M168.111 80.8365C168.111 80.8365 170.02 94.304 168.405 101.911C168.405 101.911 160.995 124.12 138.163 126.325C109.504 129.086 98.2517 82.5499 109.351 60.1113C120.45 37.6726 149.066 44.1117 156.979 53.2356C161.901 58.8998 167.281 66.725 168.111 80.8365Z" fill="#FFBEAC"/>
<path d="M125.929 92.8623C126.343 95.0996 125.274 97.1732 123.517 97.5006C121.771 97.828 120.013 96.2783 119.588 94.0519C119.173 91.8146 120.243 89.7409 122 89.4135C123.746 89.0861 125.503 90.625 125.929 92.8623Z" fill="#513F33"/>
<path d="M151.25 86.3139C151.665 88.5513 150.595 90.6249 148.838 90.9523C147.092 91.2797 145.335 89.7299 144.909 87.5035C144.494 85.2662 145.564 83.1926 147.321 82.8652C149.078 82.5378 150.835 84.0766 151.25 86.3139Z" fill="#513F33"/>
<path d="M131.657 98.7887C131.668 98.756 131.668 98.7232 131.679 98.6905C132.268 96.8788 133.163 95.8638 134.32 95.6456C136.066 95.3291 137.507 97.0316 137.66 97.228C137.954 97.5882 137.9 98.1339 137.539 98.4286C137.168 98.7232 136.634 98.6687 136.339 98.3085C136.033 97.9374 135.226 97.2171 134.636 97.3372C134.156 97.4245 133.687 98.1011 133.316 99.2253C133.163 99.6727 132.683 99.9237 132.235 99.771C131.81 99.64 131.57 99.2144 131.657 98.7887Z" fill="#513F33"/>
<path d="M151.532 76.7538C151.39 76.8084 151.237 76.7975 151.074 76.7211C150.888 76.6338 146.643 74.5492 144.176 77.747C143.947 78.0416 143.532 78.0198 143.238 77.7033C142.954 77.3759 142.899 76.8739 143.129 76.5792C146.152 72.6721 151.205 75.1604 151.423 75.2695C151.783 75.4551 151.99 75.9244 151.892 76.3173C151.838 76.5355 151.696 76.6883 151.532 76.7538Z" fill="#513F33"/>
<path d="M122.097 82.5594C121.999 82.6248 121.868 82.6358 121.715 82.5812C121.541 82.5157 117.47 81.0751 116.357 84.371C116.248 84.6766 115.898 84.7094 115.571 84.4365C115.243 84.1637 115.058 83.7053 115.167 83.3997C116.542 79.3726 121.388 81.0969 121.595 81.1733C121.934 81.3043 122.239 81.719 122.272 82.101C122.283 82.3193 122.217 82.483 122.097 82.5594Z" fill="#513F33"/>
<path d="M162.228 87.7988C162.424 93.4522 165.676 97.9268 169.496 97.7958C173.316 97.6649 176.252 92.972 176.055 87.3186C175.859 81.6653 172.607 77.1907 168.787 77.3217C164.967 77.4635 162.031 82.1455 162.228 87.7988Z" fill="#FFBEAC"/>
<path d="M111.072 105.681C114.283 104.195 115.106 99.1418 112.91 94.3934C110.714 89.6449 106.33 86.9996 103.119 88.4849C99.9074 89.9702 99.0847 95.0237 101.281 99.7721C103.477 104.521 107.861 107.166 111.072 105.681Z" fill="#FFBEAC"/>
<path d="M168.787 77.3219L167.815 77.4529C167.368 77.2892 135.325 62.3482 129.934 45.1482C129.934 45.1482 147.985 40.7936 158.429 49.3718C168.863 57.9609 168.787 77.3219 168.787 77.3219Z" fill="#BF743C"/>
<path d="M129.923 45.1478C129.923 45.1478 115.353 82.3746 105.53 88.0716C105.53 88.0716 101.34 73.6982 104.712 65.502C108.095 57.3057 116.499 44.9514 129.923 45.1478Z" fill="#BF743C"/>
<path d="M133.316 110.052C133.785 110.052 134.276 110.031 134.8 109.998C142.887 109.43 146.805 103.166 146.958 102.904C147.144 102.609 147.045 102.216 146.751 102.031C146.456 101.845 146.063 101.943 145.878 102.238C145.834 102.315 142.123 108.208 134.702 108.732C127.564 109.234 126.658 105.894 126.626 105.752C126.538 105.414 126.2 105.207 125.873 105.283C125.534 105.36 125.327 105.698 125.392 106.036C125.436 106.211 126.364 110.052 133.316 110.052Z" fill="#513F33"/>
<path d="M259.36 102.139C259.36 102.139 277.542 100.316 292.156 113.326C306.769 126.335 309.258 166.945 309.258 166.945H168.939C168.939 166.945 177.616 116.141 216.065 108.011C254.492 99.869 259.36 102.139 259.36 102.139Z" fill="#FF9C2A"/>
<path d="M246.971 192.625V196.019L292.154 166.847V163.453L246.971 192.625Z" fill="#E8D8B6"/>
<path d="M187.536 196.019C188.169 195.921 205.467 190.333 219.022 190.355C234.738 190.377 246.972 196.019 246.972 196.019V192.625C246.972 192.625 235.862 186.961 219.022 186.961C202.182 186.961 187.536 192.625 187.536 192.625V196.019Z" fill="#E8D8B6"/>
<path d="M133.622 191.032C133.622 191.032 146.107 190.333 159.662 190.355C175.378 190.377 187.536 196.019 187.536 196.019V192.625C187.536 192.625 176.753 186.961 159.662 186.961C142.571 186.961 133.622 187.638 133.622 187.638V191.032Z" fill="#E8D8B6"/>
<path d="M246.972 192.626C246.972 192.626 234.738 186.983 219.022 186.961C205.467 186.94 188.169 192.527 187.536 192.626L234.181 162.504C234.814 162.405 252.113 156.818 265.668 156.839C281.383 156.861 293.618 162.504 293.618 162.504L246.972 192.626Z" fill="white"/>
<path d="M187.535 192.626C187.535 192.626 175.377 186.983 159.661 186.961C146.106 186.939 133.621 187.638 133.621 187.638L180.267 157.516C180.267 157.516 192.752 156.818 206.307 156.839C222.022 156.861 234.18 162.504 234.18 162.504L187.535 192.626Z" fill="white"/>
<path d="M246.305 186.427C246.239 186.427 246.174 186.416 246.119 186.394C241.088 184.801 233.187 182.902 224.128 182.891C224.106 182.891 224.085 182.891 224.052 182.891C219.086 182.891 213.04 183.644 206.077 185.128C205.728 185.204 205.4 184.986 205.324 184.637C205.247 184.299 205.466 183.96 205.815 183.884C212.898 182.367 219.075 181.625 224.128 181.614C233.35 181.625 241.383 183.556 246.501 185.172C246.84 185.281 247.014 185.63 246.916 185.968C246.818 186.252 246.578 186.427 246.305 186.427Z" fill="#828B88"/>
<path d="M253.204 180.903C253.138 180.903 253.073 180.892 253.018 180.87C247.987 179.277 240.085 177.378 231.027 177.367C226.705 177.378 222.362 177.793 217.374 178.72C217.025 178.786 216.697 178.557 216.632 178.218C216.566 177.88 216.796 177.542 217.134 177.476C222.154 176.538 226.541 176.101 230.918 176.101C230.951 176.101 230.983 176.101 231.016 176.101C240.238 176.112 248.271 178.044 253.389 179.659C253.728 179.768 253.902 180.117 253.804 180.456C253.717 180.729 253.466 180.903 253.204 180.903Z" fill="#828B88"/>
<path d="M263.844 174.618C263.779 174.618 263.702 174.607 263.637 174.585C263.604 174.574 260.166 173.396 253.869 172.621C248.052 171.901 238.524 171.388 226.203 172.981C225.864 173.025 225.537 172.785 225.493 172.435C225.45 172.086 225.69 171.77 226.039 171.726C238.524 170.1 248.183 170.635 254.077 171.366C260.494 172.162 263.91 173.33 264.052 173.385C264.379 173.505 264.554 173.865 264.445 174.192C264.357 174.454 264.117 174.618 263.844 174.618Z" fill="#828B88"/>
<path d="M274.802 169.052C274.736 169.052 274.671 169.041 274.616 169.019C274.256 168.91 273.874 168.779 273.459 168.648C268.046 166.869 257.962 163.551 236.516 166.782C236.178 166.836 235.85 166.596 235.796 166.247C235.741 165.898 235.981 165.581 236.331 165.527C258.071 162.253 268.341 165.625 273.863 167.437C274.267 167.568 274.649 167.699 275.009 167.808C275.347 167.917 275.522 168.266 275.424 168.604C275.325 168.877 275.074 169.052 274.802 169.052Z" fill="#828B88"/>
<path d="M190.428 191.381C190.221 191.381 190.014 191.282 189.894 191.086C189.708 190.791 189.784 190.398 190.079 190.213L232.37 162.907C232.665 162.721 233.057 162.798 233.243 163.092C233.429 163.387 233.352 163.78 233.057 163.965L190.767 191.272C190.668 191.348 190.548 191.381 190.428 191.381Z" fill="#E8D8B6"/>
<path d="M191.933 185.728C191.846 185.728 191.759 185.706 191.672 185.673C191.551 185.619 179.448 180.085 164.06 180.063C160.917 180.053 157.588 180.096 154.15 180.162H154.139C153.801 180.162 153.517 179.889 153.506 179.54C153.495 179.19 153.779 178.907 154.128 178.896C157.577 178.819 160.917 178.787 164.071 178.797C179.743 178.819 192.086 184.462 192.217 184.527C192.534 184.669 192.676 185.051 192.523 185.368C192.403 185.597 192.174 185.728 191.933 185.728Z" fill="#828B88"/>
<path d="M199.638 179.714C199.551 179.714 199.464 179.692 199.376 179.659C199.256 179.605 187.153 174.072 171.764 174.05C168.578 174.039 165.194 174.082 161.691 174.159H161.68C161.342 174.159 161.058 173.886 161.047 173.537C161.036 173.188 161.32 172.904 161.669 172.893C165.183 172.816 168.578 172.784 171.764 172.784C187.437 172.806 199.78 178.448 199.911 178.513C200.228 178.655 200.369 179.037 200.217 179.354C200.097 179.572 199.867 179.714 199.638 179.714Z" fill="#828B88"/>
<path d="M208.044 174.051C207.957 174.051 207.869 174.029 207.782 173.996C207.662 173.942 195.559 168.408 180.17 168.387C176.667 168.376 172.891 168.419 168.951 168.517H168.94C168.602 168.517 168.318 168.245 168.307 167.895C168.296 167.546 168.58 167.251 168.929 167.251C172.88 167.164 176.667 167.11 180.181 167.121C195.853 167.142 208.197 172.785 208.328 172.85C208.644 172.992 208.786 173.374 208.633 173.691C208.513 173.92 208.284 174.051 208.044 174.051Z" fill="#828B88"/>
<path d="M158.693 224.363L156.489 225.716L158.693 232.406L205.306 202.306C207.019 201.204 208.045 199.305 208.045 197.275V192.495L158.693 224.363Z" fill="#345454"/>
<path d="M99.9433 190.344H206.069C208.055 190.344 208.819 192.931 207.149 194.011L157.109 226.316C157.033 226.36 156.946 226.392 156.858 226.392H45.5274C45.0799 226.392 44.9053 225.803 45.2763 225.563L99.6923 190.421C99.7796 190.377 99.856 190.344 99.9433 190.344Z" fill="#3588CC"/>
<path d="M132.423 193.902L121.214 201.138C120.691 201.476 120.931 202.284 121.553 202.284H152.941C153.879 202.284 154.796 202.011 155.582 201.509L166.867 194.219C167.391 193.88 167.15 193.073 166.528 193.073H135.228C134.235 193.073 133.263 193.367 132.423 193.902Z" fill="#00C0EA"/>
<path d="M57.6519 223.663H154.73C155.69 223.663 156.629 223.391 157.436 222.867L184.47 205.361C185.157 204.914 184.841 203.855 184.022 203.855H85.1546C84.2924 203.855 83.4629 204.106 82.7426 204.564L56.9643 221.262C55.8511 221.972 56.3532 223.663 57.6519 223.663Z" fill="#00C0EA"/>
<path d="M39.1643 232.406H158.692L128.875 142.073C126.649 136.081 120.941 132.109 114.546 132.109H8.88957C1.51187 132.109 -1.69676 136.769 0.878881 143.688L27.312 223.817C28.9927 228.947 33.7729 232.406 39.1643 232.406Z" fill="#3588CC"/>
<path d="M64.5947 185.095C64.5947 188.686 67.4978 191.589 71.0884 191.589C74.679 191.589 77.5821 188.686 77.5821 185.095C77.5821 181.505 74.679 178.602 71.0884 178.602C67.4978 178.602 64.5947 181.516 64.5947 185.095Z" fill="white"/>
<path d="M171.952 53.737C171.952 53.737 163.548 16.4666 198.014 4.74521C232.479 -6.97615 251.622 10.4094 263.038 35.7184L171.952 53.737Z" fill="#345454"/>
<path d="M236.289 83.9141L240.905 96.9342L253.085 102.14C253.085 102.14 256.447 134.969 225.353 131.913C225.353 131.913 211.711 128.966 213.283 112.104L203.93 96.5085L236.289 83.9141Z" fill="#FFBEAC"/>
<path d="M249.658 55.6682C249.658 55.6682 251.786 71.0675 249.658 84.1312C249.658 84.1312 238.079 114.69 210.653 114.712C177.911 114.733 166.114 58.0255 179.297 31.1341C192.481 4.25351 226.718 11.8167 236.234 22.6977C242.128 29.4643 248.6 38.8064 249.658 55.6682Z" fill="#FFBEAC"/>
<path d="M192.939 70.3484C193.452 73.0222 192.175 75.5106 190.08 75.9144C187.984 76.3182 185.878 74.4738 185.365 71.7999C184.852 69.126 186.129 66.6377 188.224 66.2339C190.32 65.841 192.426 67.6854 192.939 70.3484Z" fill="#345454"/>
<path d="M225.025 62.1626C225.538 64.8365 224.261 67.3248 222.166 67.7286C220.07 68.1324 217.964 66.288 217.451 63.6141C216.938 60.9403 218.215 58.452 220.311 58.0481C222.406 57.6443 224.512 59.4887 225.025 62.1626Z" fill="#345454"/>
<path d="M200.557 78.7293C200.535 78.6965 200.525 78.6638 200.514 78.6201C199.717 76.492 199.782 74.8658 200.699 73.8072C202.085 72.2029 204.705 72.7158 204.999 72.7813C205.545 72.9013 205.905 73.4361 205.785 73.9927C205.665 74.5493 205.119 74.8986 204.574 74.7785C204.017 74.6585 202.718 74.6039 202.249 75.1496C201.867 75.597 201.932 76.5684 202.435 77.8998C202.631 78.4346 202.369 79.0239 201.834 79.2204C201.343 79.4059 200.797 79.1877 200.557 78.7293Z" fill="#345454"/>
<path d="M223.833 50.0483C223.67 50.1138 223.473 50.1029 223.288 50.0047C223.069 49.8955 217.973 47.429 215.037 51.2707C214.764 51.6308 214.262 51.5981 213.913 51.2161C213.564 50.8341 213.509 50.223 213.782 49.8737C217.372 45.1808 223.441 48.1384 223.692 48.2694C224.117 48.4877 224.368 49.0443 224.259 49.5245C224.205 49.7864 224.041 49.9719 223.833 50.0483Z" fill="#345454"/>
<path d="M188.846 56.815C188.715 56.8696 188.552 56.8478 188.388 56.7387C188.203 56.6186 183.837 53.8683 181.654 57.4262C181.447 57.7536 181.032 57.6991 180.727 57.2953C180.421 56.8914 180.323 56.3021 180.53 55.9747C183.193 51.631 188.388 54.9161 188.606 55.0579C188.966 55.298 189.217 55.8546 189.152 56.3239C189.13 56.575 188.999 56.7496 188.846 56.815Z" fill="#345454"/>
<path d="M198.931 14.2407C198.931 14.2407 199.389 31.6372 221.795 36.5048C229.096 38.0872 235.797 41.9071 240.861 47.4076C244.812 51.6967 247.475 56.6734 244.441 60.8097L249.658 84.1433C249.658 84.1433 272.304 71.1013 264.773 41.2959C257.243 11.4904 225.418 -7.77231 198.931 14.2407Z" fill="#345454"/>
<path d="M224.077 79.2866C224.077 79.2866 226.358 92.9397 216.176 96.2357C205.993 99.5316 199.02 91.8374 199.02 91.8374L224.077 79.2866Z" fill="white"/>
<path d="M259.966 66.5431C262.299 60.1955 260.713 53.7724 256.425 52.1966C252.137 50.6208 246.769 54.4891 244.437 60.8367C242.104 67.1843 243.69 73.6075 247.978 75.1833C252.266 76.7591 257.634 72.8907 259.966 66.5431Z" fill="#FFBEAC"/>
<path d="M198.931 14.2403C198.931 14.2403 194.249 24.2918 190.287 37.5629C188.378 43.9693 186.991 50.5176 180.76 52.9513C177.573 54.1955 174.441 54.7303 171.952 53.7262C161.104 49.3607 168.329 20.9413 183.052 13.389C197.785 5.83669 198.931 14.2403 198.931 14.2403Z" fill="#345454"/>
<path d="M291.569 55.5273C291.569 55.5273 292.213 63.5162 297.048 72.1162C301.217 79.5375 318.668 106.942 330.269 124.971C336.108 134.052 333.456 146.144 324.343 151.939C313.56 158.804 299.187 153.587 295.323 141.408L270.309 64.4547C270.309 64.4547 265.048 62.7849 262.113 53.1918C259.188 43.5986 291.569 55.5273 291.569 55.5273Z" fill="#FFBEAC"/>
<path d="M282.062 64.5534C285.085 63.8331 290.738 63.6476 292.528 52.2209C294.318 40.7942 296.948 31.1792 297.439 29.9023C297.941 28.6254 296.937 15.9873 296.631 14.4157C296.326 12.8441 291.458 12.102 291.524 15.387C291.557 17.1005 291.6 20.571 291.644 23.485C291.687 26.6282 290.552 29.6731 288.457 32.0087L269.685 30.7208L268.649 35.5556C268.649 35.5556 267.459 27.9051 264.709 25.1112C261.958 22.3063 258.008 22.7429 258.226 26.8137C258.433 30.8845 260.267 44.2757 260.267 44.2757C260.267 44.2757 259.765 50.693 262.231 55.8443C266.389 64.5207 272.25 66.8999 282.062 64.5534Z" fill="#FFBEAC"/>
<path d="M289.702 33.1649L289.713 28.5156C289.724 23.277 289.364 18.0384 288.655 12.8435L288.12 8.97999C287.858 7.46298 286.385 6.44801 284.868 6.7536C283.438 7.03735 282.488 8.39066 282.685 9.83127L284.016 19.2389L283.623 32.259L289.702 33.1649Z" fill="#FFBEAC"/>
<path d="M283.688 33.482L282.182 20.2C282.149 19.9272 282.105 19.6543 282.051 19.3815L279.704 7.99844C279.322 6.51417 277.794 5.64106 276.321 6.04487L275.677 6.21949C274.171 6.63421 273.309 8.21671 273.789 9.70098L275.961 18.9668C276.135 19.7089 276.212 20.4728 276.201 21.2368L275.972 32.0632L283.688 33.482Z" fill="#FFBEAC"/>
<path d="M268.572 35.9919L269.358 26.8134C269.412 26.1695 269.401 25.5256 269.314 24.8817L267.928 14.1207C267.557 12.5819 268.55 11.054 270.1 10.7702L270.646 10.672C272.086 10.4101 273.472 11.3159 273.81 12.7347L275.306 22.9063C275.338 23.1028 275.36 23.2992 275.371 23.4956L276.07 32.0848L268.572 35.9919Z" fill="#FFBEAC"/>
<path d="M164.663 119.176L163.593 119.809C162.044 120.715 161.76 123.105 162.949 125.135L188.258 168.244L194.938 164.326L169.629 121.217C168.439 119.176 166.213 118.27 164.663 119.176Z" fill="#D35440"/>
<path d="M194.936 164.327C194.947 164.327 194.947 164.327 194.936 164.327V164.337L196.638 174.422C196.682 174.684 196.453 174.815 196.245 174.651L188.267 168.256C188.267 168.256 188.267 168.245 188.256 168.245C188.267 168.256 188.213 166.105 190.646 164.676C193.091 163.235 194.947 164.337 194.936 164.327Z" fill="#FFBEAC"/>
<path d="M196.258 171.944L196.662 174.367C196.716 174.684 196.432 174.847 196.181 174.651L194.261 173.112L191.816 171.148C191.816 171.148 191.805 170.013 193.278 169.15C194.752 168.288 195.734 168.845 195.734 168.845L196.258 171.944Z" fill="#345454"/>
<path d="M169.104 132.218C169.104 132.218 179.679 133.996 182.67 137.893C185.66 141.789 190.167 146.755 187.69 149.712C185.223 152.681 185.223 152.681 185.223 152.681C185.223 152.681 188.607 157.734 185.562 160.211C182.517 162.689 187.799 168.899 179.57 167.665C171.341 166.443 160.155 162.743 160.766 152.604C161.377 142.455 164.105 131.039 169.104 132.218Z" fill="#FFBEAC"/>
<defs>
<filter id="filter0_i_4112_126463" x="27.5293" y="0" width="295.026" height="278.919" filterUnits="userSpaceOnUse" color-interpolation-filters="sRGB">
<feFlood flood-opacity="0" result="BackgroundImageFix"/>
<feBlend mode="normal" in="SourceGraphic" in2="BackgroundImageFix" result="shape"/>
<feColorMatrix in="SourceAlpha" type="matrix" values="0 0 0 0 0 0 0 0 0 0 0 0 0 0 0 0 0 0 127 0" result="hardAlpha"/>
<feOffset dy="2.07912"/>
<feGaussianBlur stdDeviation="2.07912"/>
<feComposite in2="hardAlpha" operator="arithmetic" k2="-1" k3="1"/>
<feColorMatrix type="matrix" values="0 0 0 0 0 0 0 0 0 0 0 0 0 0 0 0 0 0 0.06 0"/>
<feBlend mode="normal" in2="shape" result="effect1_innerShadow_4112_126463"/>
</filter>
<clipPath id="clip0_4112_126463">
<rect x="27.5293" width="295.026" height="276.84" rx="138.42" fill="white"/>
</clipPath>
</defs>
</svg>
